<?xml version="1.0" encoding="utf-8"?>
<!-- Generator: Adobe Illustrator 23.0.3, SVG Export Plug-In . SVG Version: 6.00 Build 0)  -->
<svg version="1.1" id="Layer_1" xmlns="http://www.w3.org/2000/svg" xmlns:xlink="http://www.w3.org/1999/xlink" x="0px" y="0px"
	 viewBox="0 0 1200 1200" enable-background="new 0 0 1200 1200" xml:space="preserve">
<g>
	<path fill="#821911" d="M155.574,831.184c2.351-3.051,4.515-6.273,7.101-9.111c3.205-3.518,5.824-6.696,1.646-11.359
		c-1.575-1.758-2.277-4.298-3.398-6.524c-6.743,2.885-13.125,5.616-19.507,8.346c-0.246-0.472-0.493-0.945-0.739-1.417
		c4.759-3.325,9.465-6.732,14.303-9.938c2.187-1.45,3.098-2.695,2.063-5.577c-4.44-12.358-8.558-24.832-12.903-37.585
		c-11.104,1.197-21.899-1.704-32.407-5.412c-11.077-3.909-19.479-12.043-27.635-20.045c-12.949-12.705-22.506-27.975-29.332-44.651
		c-8.492-20.746-5.493-40.293,7.864-58.558c8.459-11.568,19.804-16.672,33.488-17.171c9.305-0.339,18.644,0.274,28.807,0.478
		c-1.76-34.116,2.621-68.805,12.907-101.73c-11.824,3.116-23.438,6.328-35.143,9.162c-3.171,0.768-6.667,0.811-9.93,0.442
		c-5.196-0.587-8.1-6.55-5.529-11.241c7.771-14.178,18.291-26.128,30.301-36.854c4.595-4.104,9.014-8.407,13.272-12.393
		c-7.85-15.903-15.682-31.201-23.011-46.736c-15.885-33.671-31.51-67.464-47.25-101.204c-1.325-2.839-3.233-5.525-3.934-8.502
		c-0.717-3.046-1.416-6.93-0.151-9.464c5.324-10.666,11.191-21.079,17.235-31.364c5.342-9.091,14.662-13.841,22.992-19.517
		c15.659-10.67,19.234-10.086,29.915,5.63c11.706,17.224,22.712,34.923,34.406,52.156c13.107,19.316,26.581,38.385,40.025,57.47
		c4.489,6.371,9.214,12.596,14.159,18.618c2.392,2.912,5.543,5.2,8.616,8.013c10.767-8.808,21.271-17.478,31.869-26.032
		c4.124-3.328,8.438-6.423,12.714-9.558c1.059-0.776,2.276-1.754,3.477-1.839c2.997-0.21,6.026,0.04,9.042,0.106
		c-0.092,2.511,0.587,5.393-0.413,7.466c-3.933,8.152-8.394,16.05-13.107,24.88c5.615-2.547,10.591-4.817,15.578-7.064
		c17.599-7.93,35.06-16.304,54.29-19.647c7.307-1.27,14.774-1.605,22.103-2.777c13.541-2.166,26.947-0.807,39.713,3.292
		c11.756,3.775,24.727,4.412,35.111,11.855c5.561,3.986,10.233,9.193,15.481,13.644c1.398,1.186,3.522,2.432,5.172,2.265
		c15.74-1.594,28.472,3.655,38.275,16.062c0.304,0.385,0.746,0.66,1.234,1.082c11.01-6.747,22.687-11.743,35.509-14.142
		c16.578-3.103,26.686,7.151,21.366,23.336c-3.731,11.351-9.614,21.994-14.6,33.096c5.487,1.902,12.194,4.226,18.937,6.563
		c4.518-7.698,6.262-17.368,13.791-23.654c-0.716,9.581-6.075,17.133-10.428,25.844c3.834,1.742,7.657,3.479,11.575,5.258
		c6.726-6.726,13.333-13.334,19.941-19.942c0.696,0.506,1.393,1.013,2.089,1.519c-0.769,1.661-1.17,3.679-2.373,4.919
		c-4.892,5.041-10.03,9.843-14.544,14.217c5.48,4.909,11.097,9.022,15.465,14.191c2.708,3.204,4.237,7.877,5.029,12.126
		c1.494,8.018-1.911,14.159-9.372,18.075c-4.615,2.423-9.499,4.333-14.165,6.429c5.557,7.529,11.766,14.581,16.423,22.542
		c8.884,15.187,8.153,28.351-6.862,39.487c-26.481,19.639-53.537,38.39-81.852,55.301c-1.006,0.601-2.127,1.649-2.423,2.705
		c-6.639,23.699-13.185,47.425-19.693,71.161c-0.521,1.9-0.642,3.909-1.004,6.222c3.423,0.791,7.046,1.449,10.563,2.472
		c16.779,4.879,31.956,12.595,40.803,28.361c3.568,6.357,4.999,14.161,6.217,21.503c0.826,4.974,0.437,10.523-0.893,15.411
		c-3.714,13.648-13.097,20.732-27.091,23.469c-9.705,1.898-18.284-1.559-27.358-2.61c-4.7-0.545-9.327-1.713-15.193-2.829
		c1.279,6.614,2.466,12.748,3.619,18.713c9.154-1.661,18.055-5.183,27.267-1.374c9.438,3.903,12.699,12.244,14.139,22.049
		c11.687-5.378,22.478-6.39,31.756,2.784c5.942,5.876,6.285,13.18,3.117,20.721c19.854,3.112,25.325,12.663,16.878,30.08
		c5.618,2.8,11.251,5.608,18.309,9.126c-3.022,0.582-4.952,1.382-6.784,1.2c-2.401-0.239-5.086-0.718-7.02-2.024
		c-8.786-5.938-14.836-0.512-22.613,5.89c4.378,3.39,8.617,6.673,12.856,9.956c-0.534,0.65-1.067,1.301-1.601,1.951
		c-3.997-2.562-8.235-4.826-11.904-7.793c-2.324-1.88-3.796-2.045-6.403-0.627c-13.744,7.48-28.708,10.528-44.183,11.052
		c-10.125,0.343-20.272,0.183-30.406,0.038c-16.531-0.237-33.105,0.001-49.575-1.17c-15.275-1.086-30.431-3.806-45.653-5.704
		c-6.739-0.84-13.602-0.946-20.247-2.224c-15.95-3.067-31.907-6.217-47.665-10.125c-12.099-3.001-24.317-6.228-35.738-11.099
		c-19.371-8.261-38.459-17.329-57.047-27.222c-8.072-4.296-14.608-11.476-22.195-17.633c-2.372,3.789-4.849,7.746-7.326,11.702
		c-0.355-0.17-0.71-0.341-1.066-0.511c1.278-3.292,2.383-6.664,3.883-9.851c1.395-2.964,1.756-5.283-0.975-7.906
		c-2.705-2.598-4.758-5.875-7.242-9.037c-4.762,3.866-9.257,7.515-13.752,11.164C156.277,831.753,155.925,831.469,155.574,831.184z
		 M548.175,466.4c-0.282-0.135-0.565-0.269-0.847-0.404c1.105-2.842,2.211-5.684,3.51-9.025c-4.777-2.471-9.643-4.56-14.039-7.382
		c-4.587-2.944-7.187-1.664-10.75,2.082c-8.744,9.195-17.793,18.184-27.429,26.425c-9.426,8.061-19.691,15.148-29.659,22.566
		c-15.722,11.7-32.184,22.332-51.642,26.323c-11.795,2.419-17.558,2.199-22.106-9.057c-1.593-3.943-1.599-8.993-0.915-13.313
		c3.486-22.046,25.202-33.141,41.326-33.193c6.679-0.021,10.585,6.618,7.749,12.626c-0.44,0.932-1.667,2.366-2.143,2.229
		c-1.05-0.303-2.447-1.329-2.661-2.292c-1.282-5.767-5.57-4.908-9.442-4.262c-2.891,0.482-5.696,1.657-8.449,2.752
		c-10.479,4.168-17.915,10.934-19.761,22.742c-1.139,7.287,2.758,11.008,9.918,9.594c13.184-2.604,25.215-8.115,36.154-15.485
		c16.892-11.381,33.864-22.843,49.484-35.854c14.14-11.778,28.551-23.858,37.293-40.771c2.866-5.545,5.62-11.204,7.754-17.055
		c1.849-5.069-0.635-8.513-5.758-7.421c-8.453,1.802-17.215,3.718-24.805,7.615c-9.752,5.007-18.478,12.014-27.64,18.169
		c-8.999,6.046-17.334,12.737-22.612,22.548c-0.913,1.697-2.429,3.068-3.667,4.59c-0.56-0.414-1.119-0.829-1.679-1.243
		c3.101-19.725,17.91-31.69,31.373-44.36c-5.853-9.663-20.262-15.904-32.196-13.93c0,2.906,0.262,5.915-0.047,8.864
		c-1.174,11.21-7.558,24.877-19.988,28.232c-6.01,1.622-12.24,3.195-18.403,3.333c-15.456,0.344-30.039-2.903-41.444-14.385
		c-6.517-6.561-12.511-13.606-14.408-24.557c2.668,1.596,4.466,2.531,6.114,3.679c17.741,12.365,36.264,21.354,59.035,17.435
		c14.661-2.523,22.324-18.424,13.975-30.838c-8.288-12.323-25.271-18.632-40.435-15.157c-3.026,0.694-6.168,0.885-9.256,1.308
		c-0.11-0.524-0.22-1.048-0.33-1.572c1.987-1.603,3.974-3.207,6.284-5.071c-4.724-0.392-9.054-0.481-13.291-1.152
		c-13.827-2.191-27.533-0.644-41.105,1.634c-21.954,3.685-41.726,13.855-62.255,21.791c-24.512,9.476-45.69,24.655-66.568,39.902
		c-14.313,10.452-26.671,23.66-39.457,36.093c-7.608,7.398-14.859,15.267-16.784,26.549c-0.592,3.467-3.06,6.57-4.17,10.002
		c-3.242,10.028-6.232,20.138-9.321,30.216c15.042-8.017,30.103-5.65,38.872,9.106c6.433,10.824,7.898,22.209,7.673,34.326
		c-0.249,13.411-5.573,24.795-12.554,35.871c-3.907,6.199-9.802,12.339-5.591,20.931c0.577,1.177,0.96,2.472,1.278,3.752
		c2.135,8.58,6.012,17.468-3.897,23.967c-4.381-3.908-8.876-7.666-13.086-11.719c-14.546-14.001-31.441-21.697-52.015-19.969
		c-12.597,1.058-23.793,4.286-31.815,15.415c-9.268,12.858-12.445,26.307-6.997,41.382c8.009,22.16,21.643,40.388,40.598,54.099
		c10.51,7.603,23.632,11.215,36.254,9.159c13.223-2.154,25.923-7.695,36.521-16.783c3.197-2.742,6.804-5.005,10.223-7.488
		c0.315,0.446,0.63,0.892,0.945,1.338c-8.01,15.434-19.073,27.697-35.821,33.971c-2.896,1.085-2.59,2.632-1.533,4.969
		c3.728,8.245,7.264,16.577,10.884,24.871c1.098,2.516,2.231,5.017,3.344,7.513c4.678-2.032,7.014-7.609,12.934-6.42
		c1.255,7.394-5.895,8.585-9.185,13.024c1.839,2.849,3.731,5.778,5.648,8.746c4.962-3.925,8.446-9.677,16.087-8.706
		c-0.723,7.813-8.522,9.29-12.116,14.994c2.633,2.145,5.19,4.229,7.777,6.336c2.685-2.538,3.888-8.097,11.099-7.025
		c-2.96,4.32-5.388,7.862-8.077,11.786c6.507,5.703,12.466,11.909,19.382,16.75c9.579,6.705,19.756,12.591,29.896,18.447
		c12.251,7.075,24.049,15.115,38.485,17.63c10.198,1.777,20.249,4.378,30.402,6.433c11.905,2.409,23.826,4.755,35.783,6.884
		c10.212,1.818,20.451,3.575,30.741,4.848c15.895,1.966,31.844,3.5,47.77,5.209c2.632,0.282,5.265,0.592,7.905,0.766
		c6.631,0.437,13.271,1.157,19.9,1.08c4.92-0.057,9.811-1.376,14.743-1.803c12.887-1.117,25.866-1.497,38.66-3.256
		c8.59-1.181,16.926-4.215,25.549-6.465c-2.161-3.677-3.581-6.094-5.002-8.511c0.511-0.6,1.021-1.201,1.532-1.801
		c3.437,1.793,6.873,3.585,10.668,5.564c2.026-1.342,4.535-3.006,7.143-4.734c-3.419-2.858-9.558-2.142-8.38-9.896
		c4.628,1.436,8.876,2.923,13.224,4.011c1.496,0.374,4.134,0.337,4.705-0.53c1.649-2.504,2.641-5.49,3.448-8.409
		c0.068-0.245-3.242-2.144-4.887-2.019c-7.714,0.589-15.517,1.027-23.061,2.605c-18.605,3.893-37.06,8.759-56.26,8.266
		c-14.321-0.367-28.651-0.975-42.935-2.041c-12.856-0.959-25.73-2.207-38.46-4.197c-15.74-2.46-31.378-5.629-46.989-8.84
		c-15.761-3.242-31.909-5.032-46.755-11.932c-9.144-4.25-18.461-8.146-25.718-15.547c-3.101-3.162-6.383-6.163-9.743-9.05
		c-17.245-14.819-26.269-32.88-21.117-55.95c5.387-24.122,16.109-46.161,29.082-66.942c13.925-22.305,32.219-41.068,51.588-58.713
		c8.494-7.738,17.366-15.064,26.157-22.47c10.432-8.79,20.957-17.469,31.45-26.187c8.689-7.219,17.141-14.75,26.138-21.564
		c17.429-13.199,36.164-24.337,55.763-34.047c20.84-10.325,41.388-21.212,63.826-27.987c16.848-5.087,33.472-10.926,50.126-16.634
		c3.398-1.165,6.566-3.101,9.684-4.946c1.936-1.146,2.711-2.626,1.716-5.35c-3.33-9.119-10.892-13.436-18.813-17.362
		c-0.794-0.394-2.768,0.719-3.693,1.638c-2.177,2.161-4.052,4.628-6.049,6.971c-0.313-0.199-0.626-0.398-0.939-0.598
		c2.034-3.336,4.067-6.672,6.167-10.117c-3.405-2.063-6.448-3.906-9.463-5.733C551.681,461.424,549.928,463.912,548.175,466.4z
		 M349.145,848.043c6.199-16.179,11.077-32.809,22.798-46.03c10.971-12.375,23.613-22.444,40.145-26.134
		c6.41-1.431,13.099-1.817,19.688-2.184c8.642-0.481,17.507-1.711,25.925-0.387c13.253,2.084,26.245,5.906,39.288,9.226
		c10.377,2.641,22.363-1.03,28.605-9.564c4.474-6.116,5.508-12.429,2.084-19.961c-6.509-14.315-18.001-22.709-31.805-28.209
		c-16.892-6.73-34.563-7.791-52.69-6.309c-19.208,1.57-36.85,6.842-52.996,17.393c-16.413,10.725-33.071,21.105-44.93,37.291
		c-1.904,2.599-3.727,5.258-5.587,7.889c0.345,0.292,0.69,0.584,1.035,0.876c18.836-21.029,39.996-37.964,68.452-44.574
		c31.081-7.22,71.487-2.528,80.828,8.184c-84.164-14.766-139.492,19.661-170.085,97.505
		C329.931,844.766,339.47,846.393,349.145,848.043z M451.019,639.335c19.806-11.727,39.285-23.26,58.283-34.508
		c-9.843-20.838-19.548-41.383-29.34-62.112c-24.752,13.054-48.68,27.274-71.433,45.534
		C422.601,605.169,436.635,622.042,451.019,639.335z M518.683,599.685c20.359-14.407,39.698-28.007,58.938-41.746
		c8.55-6.105,9.692-7.902,5.321-17.374c-4.733-10.256-11.174-19.73-17.028-29.45c-0.398-0.661-2.278-0.999-3.202-0.689
		c-18.051,6.044-36.142,11.987-54.045,18.449c-7.659,2.764-14.91,6.657-22.516,10.114
		C497.2,559.605,507.774,579.332,518.683,599.685z M474.606,864.075c20.415,1.088,39.8-4.334,59.309-8.792
		c1.009-0.231,2.335-0.86,2.736-1.683c2.818-5.782-0.646-13.894-6.731-16.241c-5.929-2.286-11.284,0.21-16.616,2.129
		c-4.377,1.576-7.837,1.303-9.796-3.37c-1.457-3.476-2.736-7.037-3.899-10.623c-1.533-4.727-7.07-9.718-11.301-9.04
		c-8.748,1.402-18.032,2.156-24.866,8.517c-5.138,4.783-9.524,10.459-13.741,16.113c-2.343,3.141-4.235,4.596-7.527,1.665
		c-2.601-2.315-5.129-4.717-7.795-6.953c-6.752-5.663-13.851-9.583-23.4-8.031c-11.193,1.82-16.666,9.344-20.695,18.577
		c-2.896,6.636-0.844,8.351,5.4,9.811c8.457,1.977,17.131,3.323,25.787,4.093C439.157,861.822,456.892,862.832,474.606,864.075z
		 M442.326,643.304c-13.331-17.142-26.388-33.931-39.58-50.895c-13.69,11.67-27.694,23.609-41.269,35.181
		c6.66,17.678,18.377,31.47,30.759,45.266C409.182,662.859,425.763,653.077,442.326,643.304z M387.155,674.728
		c-13.331-12.265-25.458-25.147-33.263-41.371c-12.051,10.427-23.712,20.518-35.562,30.771c2.477,2.823,4.315,5.414,6.635,7.458
		c4.846,4.272,10.054,8.133,14.918,12.386c7.406,6.476,14.289,7.528,22.901,3.154C370.699,683.106,378.609,679.076,387.155,674.728z
		 M107.348,346.245c-4.735,5.615-8.934,10.452-12.907,15.466c-0.564,0.712-0.423,2.482,0.048,3.44
		c10.039,20.431,20.158,40.822,30.304,61.2c1.182,2.375,2.615,4.625,3.626,6.398c5.907-7.349,11.598-14.429,17.849-22.207
		C133.49,389.434,120.446,367.884,107.348,346.245z M158.47,416.136c6.878-7.273,13.519-14.083,19.906-21.124
		c4.269-4.706,4.099-7.362,0.428-12.892c-3.004-4.525-5.775-9.205-8.671-13.802c-11.51-18.272-23.029-36.539-34.574-54.854
		c-10.365,4.279-17.332,12.181-24.607,19.661c-0.55,0.565-0.624,2.153-0.255,2.962c2.386,5.232,4.643,10.562,7.529,15.518
		c7.049,12.106,14.538,23.956,21.618,36.044C145.512,397.324,149.946,407.785,158.47,416.136z M188.145,377.492
		c4.505-2.071,9.028-4.151,13.05-6.001c-15.793-21.875-31.646-43.833-47.564-65.881c-3.917,2.642-7.692,5.189-11.173,7.537
		C157.675,334.578,172.934,356.069,188.145,377.492z"/>
	<path fill="#821911" d="M769.21,776.949c-12.587,0-25.242-0.524-37.834,0.138c-14.37,0.756-28.713,2.318-43.016,3.976
		c-30.413,3.526-60.929,6.327-89.883,17.765c-6.401,2.528-14.184,2.304-21.293,2.088c-7.645-0.232-16.34-9.765-15.959-17.077
		c0.173-3.32,2.432-6.532,4.304-11.18c-1.851-4.314-1.059-8.332,4.505-12.08c3.521-2.371,7.471-4.589,11.54-5.523
		c3.929-0.902,4.966-3.159,5.538-6.305c3.264-17.953,3.732-36.108,2.894-54.24c-0.368-7.967-2.598-15.847-4.037-24.075
		c-1.97,0-3.638-0.164-5.264,0.028c-7.822,0.922-16.559-9.743-11.955-18.391c10.151-19.067,20.728-37.605,39.52-50.063
		c10.357-6.866,19.264-15.905,29.566-22.87c28.57-19.314,59.132-34.963,91.817-46.036c11.776-3.989,24.217-6.018,35.27-8.68
		c-0.071-4.36-1.484-10.16,0.088-14.987c1.976-6.067,5.445-12.311,9.972-16.737c7.731-7.557,25.942-11.827,34.025-4.453
		c1.492-3.877,2.755-7.752,4.444-11.431c4.746-10.333,11.571-18.53,23.124-21.664c7.011-1.902,12.214,0.553,16.341,6.79
		c3.905,5.901,7.967,11.865,12.897,16.88c5.981,6.082,14.491,6.621,22.501,7.582c25.39,3.046,45.914-7.67,65.654-22.154
		c15.124-11.098,30.717-21.681,48.296-29.029c10.653-4.453,19.934-4.124,28.476,3.707c5.173,4.742,10.907,9.289,14.616,15.062
		c2.449,3.811,1.597,9.675,2.549,14.557c0.281,1.442,1.433,2.942,2.592,3.948c8.489,7.365,18.291,13.627,25.263,22.202
		c5.727,7.045,8.411,16.68,11.897,25.386c1.985,4.959,2.874,10.358,4.535,16.608c1.374,0,3.982,0.146,6.569-0.024
		c15.335-1.004,25.807,6.354,34.579,18.353c9.247,12.649,13.44,26.679,14.744,41.877c0.852,9.936,2.076,19.913,1.898,29.85
		c-0.549,30.599-6.551,60.354-16.206,89.291c-8.026,24.056-15.131,48.535-27.845,70.765c-10.513,18.382-20.431,37.236-36.21,51.888
		c-14.679,13.632-30.647,25.014-50.686,29.955c-20.561,5.069-37.971-0.806-54.229-13.002c-9.527-7.147-14.162-17.699-20.323-27.272
		c-4.912-7.632-9.887-15.445-16.12-21.945c-7.243-7.554-16.867-11.958-27.294-13.707c-15.495-2.6-30.853-4.745-45.706,3.783
		c-11.594,6.657-23.623,12.717-35.936,17.909c-9.176,3.869-19.008,6.399-28.752,8.64c-7.483,1.721-13.943-1.456-19.205-7.014
		c-8.749-9.242-11.479-24.645-5.508-34.475C766.981,779.885,768.223,778.341,769.21,776.949z M591.453,766.443
		c21.023-5.665,42.738-11.493,64.441-17.371c20.94-5.672,41.959-9.989,63.949-8.453c22.425,1.567,44.912,2.353,67.386,3.056
		c13.99,0.437,28.005,0.062,42.009,0.095c7.407,0.017,14.378-3.444,17.439-11.84c9.336-25.603,13.153-52.475,19.316-78.806
		c0.283-1.209,1.768-2.136,2.693-3.195c0.665,1.106,1.474,2.155,1.941,3.339c0.285,0.723,0.126,1.664,0.03,2.49
		c-1.653,14.106-2.73,28.314-5.169,42.284c-2.37,13.571-5.884,26.964-9.39,40.305c-2.334,8.882-7.753,15.263-17.411,16.874
		c-3.892,0.649-7.835,1.702-11.719,1.564c-22.981-0.812-45.955-1.837-68.922-2.97c-8.448-0.417-16.895-1.124-25.303-2.048
		c-18.314-2.014-36.574-1.711-54.487,2.559c-25.862,6.166-52.197,10.46-77.404,19.308c-5.322,1.868-11.894-0.394-13.253-4.093
		c-1.2-3.267-1.985-6.687-3.028-10.295c-2.757,2.613-4.977,5.556-7.911,7.294c-3.987,2.361-5.913,4.889-4.391,7.609
		c-1.552,4.285-3.85,7.397-3.381,10.014c0.957,5.342,6.712,9.183,12.367,8.743c5.517-0.429,11.255-0.966,16.39-2.842
		c21.142-7.724,42.835-13.059,65.098-16.06c12.295-1.657,24.651-2.874,36.993-4.158c13.49-1.403,26.974-3.368,40.5-3.783
		c15.507-0.476,31.066,0.282,46.586,0.909c6.904,0.279,13.782,1.448,20.648,2.39c13.062,1.793,25.888,4.637,39.386,2.77
		c13.772-1.904,23.753-15.103,25.731-26.243c2.103-11.842,3.396-23.839,5.793-35.616c3.452-16.963,7.582-33.788,11.415-50.64
		c-1.381-0.276-3.04-0.607-6.114-1.221c3.254-3.066,5.235-5.545,7.763-7.177c4.276-2.759,8.866-5.041,13.38-7.417
		c8.365-4.403,12.365-12.93,10.311-22.759c-4.7,0.482-9.447,1.392-14.191,1.372c-11.088-0.047-22.246,0.124-33.241-1.05
		c-9.8-1.046-16.068-8.667-22.676-15.226c-7.114-7.061-12.265-15.32-13.958-25.183c-1.699-9.896-1.662-19.829,4.693-28.907
		c-6.792-0.241-12.355-2.661-15.99-7.583c-7.369-9.976-12.389-21.035-12.467-33.799c-0.03-4.958-0.005-9.916-0.005-14.95
		c-3.597,0.686-6.653,1.26-9.706,1.852c-14.176,2.746-21.22,10.268-23.538,24.642c-0.339,2.101-1.53,4.714-3.177,5.797
		c-2.325,1.529-5.441,1.855-8.221,2.69c-30.98,9.314-59.947,23.191-87.893,39.248c-17.743,10.195-35.671,20.207-52.565,31.699
		c-13.167,8.958-27.982,16.637-34.597,33.034c-2.814,6.976-7.684,13.108-11.425,19.733c-1.611,2.854-0.541,5.681,2.679,5.717
		c4.885,0.055,10.148-0.03,14.611-1.73c18.209-6.939,37.192-9.858,56.354-12.171c8.687-1.049,17.369-2.164,26.024-3.448
		c11.891-1.763,23.739-3.814,35.633-5.554c9.962-1.458,19.942-2.854,29.955-3.883c6.953-0.714,14.013-1.397,20.957-0.971
		c14.221,0.873,28.38,2.726,42.595,3.758c16.048,1.164,31.688,4.122,47.002,9.032c2.619,0.84,4.65,2.148,3.353,4.664
		c-0.678,1.314-3.71,2.255-5.498,2.015c-9.477-1.273-18.845-3.634-28.348-4.379c-15.622-1.224-31.317-1.962-46.985-2.024
		c-12.724-0.051-25.466,1.006-38.176,1.915c-10.394,0.743-20.773,1.811-31.12,3.054c-18.183,2.185-36.3,4.981-54.514,6.843
		c-20.316,2.077-40.405,4.802-59.368,12.899c0,0.424-0.101,0.8,0.021,1.08c0.26,0.597,0.606,1.163,0.967,1.709
		c4.738,7.17,7.502,15.109,7.89,23.618c0.843,18.484-0.345,36.835-4.97,54.85C593.938,756.497,592.677,761.583,591.453,766.443z
		 M1017.544,688.698c-2.607,1.911-4.143,2.862-5.475,4.042c-7.769,6.878-18.464,10.709-22.234,21.786
		c-0.994,2.922-2.932,5.547-4.593,8.212c-7.366,11.826-15.799,22.676-28.727,28.913c-7.857,3.791-16.032,4.784-22.909-1.721
		c-5.985-5.661-11.968-11.626-16.54-18.409c-7.091-10.52-17.45-13.355-28.33-15.311c-2.046,10.796-3.705,21.209-6.03,31.471
		c-4.727,20.867-19.61,35.871-42.099,35.262c-8.103-0.219-16.207-1.057-24.267-1.988c-12.12-1.401-24.218-3.025-36.29-4.798
		c-3.041-0.447-4.551,0.564-4.785,3.318c-0.491,5.782-1.157,11.6-0.964,17.376c0.235,7.015,8.225,14.668,13.66,14.031
		c13.291-1.557,25.301-6.752,37.402-12.129c14.122-6.275,28.597-11.817,43.154-17.02c5.172-1.849,11.013-2.22,16.584-2.475
		c9.234-0.422,18.52-0.588,27.735-0.042c3.132,0.185,7.858,2.147,8.807,4.518c1.931,4.824,6.187,5.738,9.446,8.319
		c2.605,2.063,5.699,3.85,7.532,6.485c7.148,10.278,14.58,20.459,20.611,31.391c10.208,18.507,36.33,32.293,57.85,25.606
		c24.175-7.512,42.966-22.292,57.753-41.94c17.583-23.363,30.778-49.2,39.94-77.18c11.312-34.543,22.717-68.841,23.548-105.817
		c0.385-17.084-0.381-33.875-4.574-50.29c-3.088-12.09-9.768-22.382-20.874-29.126c-6.337-3.848-13.347-3.393-20.33-3.413
		c-14.913-0.044-27.659,6.015-37.906,15.952c-12.737,12.351-20.996,28.234-30.182,43.297c-4.901,8.035-9.413,16.453-15.337,23.686
		c-9.963,12.164-24.528,17.604-38.492,23.644c-10.807,4.674-20.399,10.225-26.487,21.313c-4.642,8.454,5.276,23.835,12.807,23.759
		c6.936-0.07,14.107-0.018,20.747-1.703c16.556-4.202,29.923-14.565,42.79-25.127c13.53-11.107,22.574-25.991,30.99-41.136
		c4.398-7.915,8.479-16.005,12.704-24.015c0.47,0.174,0.941,0.348,1.412,0.522c-0.083,8.873-4.948,16.451-8.281,25.631
		c12.952-9.055,23.58-18.993,32.798-30.531c-1.122,11.906-7.688,20.714-14.892,29.178c-4.695,5.517-9.851,10.389-17.47,11.365
		c-1.898,0.243-3.853,0.036-6.541,0.036c1.721,3.318,2.917,5.648,4.136,7.967c1.203,2.288,2.43,4.564,3.333,6.256
		c8.633-1.814,16.639-3.496,24.644-5.178c0.306,0.684,0.613,1.369,0.919,2.053c-1.169,1.122-2.162,2.591-3.545,3.291
		c-2.643,1.337-5.469,2.348-8.285,3.299c-17.265,5.831-30.498,17.308-42.002,30.814c-12.544,14.727-19.245,32.57-24.796,50.785
		c-4.25,13.947-4.133,27.867,1.91,41.482c3.337,7.519,6.404,15.16,9.443,22.806c0.827,2.08,1.112,4.376,1.645,6.573
		c-0.906,0.642-1.812,1.284-2.718,1.927c-3.757-4.607-7.411-9.301-11.289-13.803c-12.951-15.038-18.314-32.556-13.812-51.719
		c3.172-13.502,8.745-26.523,14.123-39.392C1007.98,703.454,1012.808,696.843,1017.544,688.698z M1083.691,536.239
		c-2.577-5.571-5.901-12.213-8.753-19.052c-4.215-10.111-9.374-19.539-18.87-25.571c-5.46-3.468-11.173-7.861-17.237-8.783
		c-12.724-1.934-24.85,1.675-35.891,8.561c-9.804,6.115-18.5,13.288-26.32,21.973c-9.832,10.922-20.838,20.812-31.637,30.823
		c-3.593,3.331-7.811,6.333-12.261,8.335c-19.637,8.836-40.07,6.343-60.561,3.892c-7.969-0.953-16.135-0.767-24.176-0.379
		c-3.36,0.162-6.668,2.146-6.504,6.658c0.177,4.864-0.49,9.919,0.612,14.559c4.095,17.247,21.723,30.858,39.377,30.758
		c7.648-0.043,15.297-0.55,22.94-0.971c11.825-0.651,23.676-2.708,33.632-8.91c13.853-8.629,26.747-18.82,39.881-28.573
		c7.02-5.213,13.28-11.535,20.604-16.231c9.635-6.178,17.151-4.653,24.628,3.869c1.032,1.177,1.02,3.658,0.708,5.395
		c-0.097,0.539-2.826,0.992-4.268,0.814c-2.297-0.283-4.524-1.129-5.682-1.441c0.662,14.68,1.301,28.853,1.855,41.156
		c6.178-9.09,13.233-20.07,20.932-30.578c4.854-6.625,9.789-13.752,16.268-18.494
		C1062.467,547.096,1073.383,542.078,1083.691,536.239z M1042.677,467.885c-1.66-3.228-2.811-7.969-5.798-10.711
		c-4.936-4.531-10.807-8.257-16.791-11.339c-2.693-1.387-6.912-1.331-9.916-0.341c-16.518,5.443-30.739,15.304-44.654,25.288
		c-17.426,12.503-35.119,23.816-56.787,27.494c-13.693,2.324-27.143,1.619-40.101-2.919c-12.605-4.415-19.252-15.119-24.731-26.545
		c-2.452-5.113-4.004-6.246-8.671-3.226c-4.717,3.052-9.887,6.833-12.406,11.592c-7.891,14.907-6.468,30.359-0.7,45.902
		c3.951,10.649,13.209,16.344,20.445,23.931c0.926,0.971,3.422,0.643,5.177,0.571c2.117-0.086,4.217-0.79,6.327-0.798
		c18.627-0.067,37.278,0.521,55.874-0.248c11.082-0.459,21.207-4.764,29.063-13.318c6.556-7.139,13.357-14.052,20.024-21.09
		c2.985-3.151,6.123-6.189,8.823-9.573c11.007-13.798,24.53-24.565,41.301-29.76C1019.404,469.62,1030.61,469.535,1042.677,467.885z
		 M890.726,704.039c0.805,0.242,1.249,0.44,1.711,0.503c11.065,1.519,21.41,4.667,28.679,13.867
		c4.599,5.822,8.825,11.941,13.183,17.951c5.086,7.013,12.077,9.325,19.563,6.015c14.437-6.383,23.448-18.223,31.569-31.52
		c-6.677,1.021-12.944,1.434-18.908,3.003c-13.005,3.421-23.971-3.901-29.978-13.286c-7.652-11.954-8.575-23.418,0.15-35.775
		c6.666-9.44,15.885-14.261,25.802-18.509c12.788-5.478,25.673-10.8,36.419-19.882c2.735-2.311,5.575-5.647,6.28-8.956
		c1.23-5.774,1.264-11.908,1.041-17.864c-0.427-11.399-1.386-22.778-2.161-34.731c-1.233,0.719-2.131,1.087-2.841,1.68
		c-10.459,8.74-20.567,17.94-31.418,26.159c-12.434,9.417-24.142,20.272-40.012,24.095c-2.001,0.482-3.914,1.326-5.879,2.005
		c2.513,9.48,0.722,17.992-3.95,25.961c-4.908,8.373-12.885,11.917-21.691,13.011C895.714,673.497,893.226,688.73,890.726,704.039z"
		/>
	<path fill="#821911" d="M746.874,446.252c13.883-10.526,24.379-22.109,31.891-35.943c2.222-4.092,1.066-10.039,1.386-15.14
		c0.745-11.897,3.81-23.097,10.076-33.305c2.695-4.391,9.288-6.235,14.075-4.725c3.544,1.118,4.503,7.693,3.886,11.859
		c-1.926,13.003-6.115,25.306-11.74,37.124c-1.474,3.097-1.675,6.145,1.013,7.997c2.094,1.442,5.299,2.321,7.793,1.958
		c14.327-2.09,25.394-10.502,36.104-19.466c2.756-2.307,5.542-4.579,9.363-6.21c-0.712,1.833-1.16,3.829-2.176,5.475
		c-9.077,14.705-20.644,26.755-36.892,33.553c-11.217,4.693-16.343,3.549-24.749-5.064c-4.844,6.232-9.526,12.599-14.574,18.662
		c-6.107,7.333-12.853,13.969-21.985,17.619c-3.464,1.384-6.433,0.848-9.157-1.577c-6.187-5.507-8.719-12.721-9.216-20.691
		c-0.323-5.175-0.061-10.386-0.061-17.068c-5.981,12.083-11.572,23.189-16.982,34.382c-2.943,6.088-5.469,12.377-8.393,18.475
		c-2.032,4.238-4.784,4.23-7.914,0.583c-4.865-5.67-3.18-12.365-2.715-18.604c0.56-7.511,2.32-14.933,3.032-22.74
		c-5.071,7.977-9.683,16.299-15.35,23.826c-5.038,6.691-10.765,13.052-17.067,18.551c-6.839,5.968-12.438,4.106-17.189-3.826
		c-5.864-9.79-7.419-20.415-7.573-31.846c-3.737,7.156-7.474,14.313-11.278,21.597c-4.226-1.761-4.715-4.176-3.576-7.487
		c6.26-18.195,12.92-36.273,18.465-54.685c2.778-9.225,3.486-19.075,5.114-28.645c0.373-2.193,0.682-4.398,1.069-6.91
		c-10.364,1.01-20.044,4.386-30.439,2.073c1.978-6.591,7.251-8.821,11.866-11.328c6.058-3.292,12.59-5.701,18.778-8.773
		c1.576-0.783,3.328-2.43,3.794-4.031c3.174-10.896,6.026-21.886,8.98-32.845c1.363-5.055,4.39-8.375,9.667-9.467
		c4.15-0.859,8.291,1.098,8.374,5.311c0.161,8.158-0.619,16.35-1.326,24.5c-0.282,3.25-1.407,6.426-2.222,9.957
		c5.177-0.574,10.292-1.373,15.433-1.592c1.905-0.081,5.059,0.75,5.52,1.968c0.652,1.725-0.172,4.479-1.228,6.292
		c-3.646,6.261-10.563,7.139-16.636,8.543c-5.982,1.383-9.934,3.634-11.489,9.937c-1.257,5.097-2.975,10.203-5.329,14.881
		c-4.548,9.035-4.479,18.869-5.601,28.46c-1.136,9.716-1.541,19.525-2.07,29.304c-0.41,7.567,0.557,14.977,2.944,22.129
		c0.536,0.241,1.071,0.483,1.607,0.724c4.294-5.562,8.999-10.858,12.802-16.738c10.408-16.096,20.313-32.517,30.661-48.653
		c6.18-9.638,7.759-20.606,10.258-31.397c2.7-11.655,5.879-23.203,9.035-34.747c1.063-3.889,3.592-6.397,7.857-7.343
		c5.144-1.141,8.793,2.013,8.177,7.232c-2.574,21.796-10.409,41.99-18.102,62.321c-3.398,8.98-4.722,18.746-6.974,28.159
		c-0.373,1.56-0.673,3.138-0.33,5.025c3.301-5.659,6.557-11.344,9.919-16.966c2.121-3.548,4.188-7.161,6.667-10.452
		c2.704-3.59,6.843-4.866,11.03-3.982c4.602,0.972,5.257,4.861,4.882,8.995c-1.033,11.382-2.194,22.757-2.911,34.159
		C744.951,438.77,746.136,441.992,746.874,446.252z"/>
	<path fill="#821911" d="M842.778,309.102c6.934-10.222,14.272-20.196,20.699-30.727c8.094-13.262,15.975-26.714,22.875-40.616
		c3.126-6.299,3.711-13.87,5.374-20.882c4.107-17.317,7.399-34.865,15.885-50.841c2.095-3.944,4.934-6.065,9.271-6.273
		c4.784-0.23,7.713,2.011,6.931,6.684c-2.037,12.169-3.868,24.503-7.504,36.237c-3.733,12.043-8.878,23.771-14.58,35.043
		c-4.958,9.801-6.905,20.191-8.849,30.663c-1.716,9.242-3.491,18.584-3.853,27.935c-0.313,8.067,1.326,16.21,2.102,24.319
		c0.688,0.203,1.375,0.407,2.063,0.61c2.807-2.682,5.983-5.075,8.353-8.1c7.169-9.153,14.668-18.157,20.733-28.021
		c3.016-4.905,3.253-11.548,4.622-17.433c6.572-28.247,15.594-55.612,30.293-80.76c3.221-5.511,8.108-10.056,12.298-14.987
		c0.732-0.861,1.739-1.571,2.75-2.101c7.174-3.766,12-0.916,12.034,7.016c0.063,14.581-5.624,27.613-10.928,40.748
		c-8.847,21.907-21.11,41.976-33.258,62.123c-2.06,3.416-4.041,7.449-4.263,11.3c-0.712,12.371-0.897,24.799-0.564,37.185
		c0.087,3.228,2.797,6.386,4.763,10.555c6.383-4.753,12.179-8.364,17.125-12.902c9.594-8.802,18.684-18.153,28.071-27.186
		c0.841-0.809,2.318-0.956,3.5-1.411c0.463,0.317,0.927,0.634,1.39,0.951c-1.051,3.687-1.633,7.594-3.235,11.023
		c-7.422,15.884-17.491,29.719-32.383,39.488c-2.581,1.693-5.479,3.069-8.416,4.023c-7.73,2.511-14.182-0.295-18.35-7.619
		c-6.982-12.271-8.7-21.045-6.845-36.988c-4.451,5.37-8.03,10.129-12.085,14.441c-3.275,3.484-6.802,6.927-10.791,9.498
		c-6.002,3.868-10.953,2.027-14.62-4.122c-4.129-6.923-5.216-14.595-5.629-22.334c-0.416-7.782-0.092-15.604-0.092-23.339
		c-2.083,3.339-4.322,7.208-6.829,10.894c-6.315,9.285-12.507,18.67-19.208,27.672c-6.562,8.816-15.535,8.386-20.52-1.316
		c-4.087-7.954-6.759-16.635-9.994-24.831c-4.814,4.567-10.529,9.989-16.136,15.307c-4.647-2.862-4.092-5.01-1.5-8.441
		c7.277-9.627,14.42-19.414,20.75-29.672c2.559-4.148,2.528-9.809,4.281-14.558c3.432-9.301,7.033-18.559,11.068-27.611
		c2.397-5.379,6.46-7.021,11.891-5.485c1.277,0.361,3.096,2.47,2.955,3.552c-0.631,4.863-1.43,9.799-3.013,14.419
		c-2.185,6.375-4.657,12.747-7.862,18.656c-4.888,9.012-6.27,18.846-6.758,28.622c-0.314,6.285,2.102,12.705,3.294,19.065
		C840.982,308.754,841.88,308.928,842.778,309.102z M945.298,247.638c7.931-8.521,26.39-50.681,27.231-62.193
		C962.749,193.749,946.529,237.049,945.298,247.638z"/>
	<path fill="#821911" d="M463.435,223.405c4.187-6.771,7.848-13.237,12.059-19.323c3.157-4.564,7.828-7.068,13.576-7.145
		c4.198-0.056,6.837,2.465,7.45,6.069c1.162,6.832,1.339,13.825,2.296,20.7c1.208,8.679,2.786,17.306,4.287,26.456
		c5.452-3.403,9.624-6.008,13.662-8.528c-2.178-5.686-5.141-11.048-6.247-16.77c-2.839-14.694,2.294-36.488,16.886-46.656
		c3.681-2.565,9.317-2.362,14.084-3.279c0.615-0.118,1.523,0.556,2.097,1.08c3.999,3.646,3.839,12.883-0.525,17.025
		c-0.641-0.94-1.338-1.785-1.836-2.734c-0.915-1.743-1.712-3.548-2.558-5.328c-1.826,1.199-4.614,1.997-5.311,3.667
		c-2.837,6.798-5.27,13.794-7.367,20.861c-1.039,3.503-1.897,7.469-1.293,10.959c1,5.781,7.227,10.959,11.15,10.519
		c4.506-0.505,10.262-7.842,11.126-14.015c0.59-4.215,1.355-8.406,2.017-12.458c6.001-2.072,7.163,2.445,7.846,5.839
		c0.738,3.666-0.09,7.632-0.092,11.467c-0.001,3.518-0.506,7.229,0.411,10.52c4.622,16.588,9.736,33.039,14.436,49.606
		c1.026,3.616,1.499,7.519,1.432,11.276c-0.062,3.452,0.916,5.184,4.335,5.912c11.018,2.347,21.727,6.556,33.42,5.046
		c-3.77,10.249-17.325,12.628-38.221,6.829c-2.392,11.935-6.071,23.484-13.791,33.06c-8.47,10.506-19.581,17.563-32.95,19.622
		c-14.004,2.157-26.552-7.767-30.091-22.474c-3.695-15.359,2.537-29.052,17.476-37.41c12.298-6.88,25.518-10.712,39.744-10.326
		c2.883,0.078,5.752,0.638,9.423,1.069c-1.862-18.468-8.759-34.884-13.01-52.585c-8.127,6.562-14.701,16.393-25.461,7.932
		c-4.672,5.047-8.535,10.342-13.484,14.267c-5.614,4.453-11.18,2.572-14.944-3.473c-5.217-8.378-7.07-17.649-7.829-27.285
		c-0.495-6.289-1.145-12.567-1.838-20.078c-8.465,10.538-12.249,21.407-14.202,33.096c-1.241,7.428-2.536,14.86-4.259,22.184
		c-0.416,1.767-2.559,4.26-4.021,4.339c-1.538,0.083-3.513-2.089-4.774-3.688c-5.113-6.484-5.391-14.557-5.874-22.148
		c-0.741-11.64-0.365-23.367-0.01-35.043c0.053-1.737,2.248-4.159,4.028-4.924c2.98-1.282,4.977,0.381,5.308,3.789
		C462.392,215.023,462.931,219.103,463.435,223.405z M562.169,307.402c-5.152-0.625-10.27-2.22-15.13-1.644
		c-12.02,1.424-23.617,4.425-33.479,12.297c-7.126,5.688-10.13,12.38-7.647,20.64c2.367,7.873,7.682,13.944,17.456,13.136
		c10.762-0.89,18.624-7.295,25.834-14.539C557.133,329.323,559.845,318.945,562.169,307.402z"/>
	<path fill="#821911" d="M681.653,1007.244c-6.174,2.146-11.024,3.729-15.774,5.57c-0.948,0.367-1.956,1.625-2.171,2.635
		c-0.583,2.738-0.929,5.555-1.058,8.355c-0.423,9.154-0.648,18.317-1.075,27.47c-0.169,3.633-0.502,7.279-1.105,10.861
		c-0.216,1.283-1.446,2.394-2.304,3.724c-5.819-3.238-5.034-8.802-5.533-13.397c-1.376-12.693-2.087-25.456-3.246-38.175
		c-0.105-1.153-1.371-2.394-2.394-3.233c-3.462-2.839-3.483-4.878-0.352-8.149c0.896-0.937,1.385-2.759,1.259-4.1
		c-1.039-11.053-2.836-22.065-3.295-33.135c-0.587-14.157-0.421-28.365-0.054-42.537c0.29-11.191,2.991-22.026,8.181-31.965
		c4.422-8.467,12.71-10.139,21.264-9.57c7.219,0.48,11.833,5.473,13.542,12.04c2.603,10.001,4.629,20.201,6.128,30.429
		c2.061,14.057,3.493,28.209,5.015,42.339c0.887,8.234,1.669,16.493,2.059,24.762c0.565,11.996,0.713,24.011,1.074,36.016
		c0.307,10.18,1.388,20.405,0.741,30.522c-0.419,6.552-3.001,13.062-5.257,19.36c-1.223,3.414-5.047,3.437-7.121,0.298
		c-5.099-7.715-8.456-16.102-8.506-25.5C681.597,1037.317,681.653,1022.767,681.653,1007.244z M672.551,903.968
		c-1.058-0.024-2.115-0.047-3.173-0.071c-6.68,29.976-6.558,60.377-4.607,91.241c5.565-0.826,10.676-1.584,16.177-2.401
		C678.111,962.749,675.331,933.359,672.551,903.968z"/>
	<path fill="#821911" d="M820.521,1010.725c0.284-39.418,0.56-78.837,0.858-118.255c0.074-9.785,2.777-18.945,7.171-27.576
		c0.937-1.841,3.056-4.005,4.823-4.19c1.282-0.135,3.698,2.523,4.195,4.325c1.959,7.1,4.359,14.3,4.754,21.563
		c0.745,13.689,0.466,27.454,0.153,41.176c-0.423,18.499-0.748,37.028-2.106,55.47c-1.297,17.621-3.417,35.216-6.1,52.681
		c-1.027,6.687-4.125,13.223-7.171,19.387c-3.292,6.664-7.959,7.483-12.357,1.713c-4.521-5.932-8.766-12.7-10.818-19.774
		c-6.775-23.343-13.108-46.855-18.402-70.571c-3.016-13.512-3.992-27.518-5.325-41.356c-1.655-17.173-2.705-34.405-4.074-51.607
		c-0.3-3.774,0.414-6.845,4.864-7.06c4.072-0.197,4.545,3.224,5.212,6.09c5.616,24.112,11.197,48.233,16.749,72.361
		c4.861,21.121,9.666,42.256,14.523,63.378c0.177,0.77,0.643,1.474,0.975,2.208C819.137,1010.7,819.829,1010.713,820.521,1010.725z"
		/>
	<path fill="#821911" d="M392.16,180.583c-16.761,3.692-32.78,7.221-48.799,10.75c-0.16-0.604-0.321-1.207-0.481-1.811
		c15.046-9.367,32.251-13.393,49.26-19.281c0.661-8.12,1.312-16.538,2.047-24.948c0.273-3.126,0.544-6.275,1.174-9.34
		c0.855-4.153,2.628-7.218,7.777-7.496c5.265-0.284,7.295,2.702,7.927,6.843c1.466,9.602,2.485,19.273,3.722,29.215
		c9.566-2.302,19.599-4.713,29.63-7.137c0.642-0.155,1.31-0.672,1.88-0.564c1.984,0.375,3.931,0.95,5.891,1.45
		c-1.285,1.733-2.213,4.382-3.915,5.047c-9.775,3.816-19.669,7.366-29.664,10.563c-3.874,1.239-5.211,2.826-5.472,7.135
		c-0.809,13.367-2.365,26.693-3.785,40.019c-0.875,8.207-2.537,16.361-2.923,24.581c-0.43,9.146,2.867,17.651,6.352,26.886
		c5.955-7.835,8.625-16.083,10.487-24.615c1.264-5.794,2.119-11.68,3.078-17.537c0.704-4.301,4.082-5.105,7.385-5.112
		c3.145-0.007,4.963,1.807,4.785,5.52c-0.614,12.821,4.75,24.051,9.864,35.315c0.545,1.199,1.673,2.349,1.679,3.526
		c0.009,1.646-0.368,3.671-1.39,4.8c-0.589,0.65-3.333,0.419-4.148-0.386c-4.284-4.232-8.263-8.773-12.085-12.923
		c-2.374,4.915-4.886,11.12-8.235,16.834c-6.159,10.509-13.692,13.754-21.145-0.231c-0.769-1.443-1.549-2.881-2.312-4.298
		c-2.564,4.999-4.872,10.109-7.716,14.901c-4.39,7.396-11.919,8.703-18.444,3.021c-3.699-3.221-6.677-7.269-9.706-10.639
		c-2.443,5.247-4.745,11.257-7.93,16.755c-3.799,6.559-10.266,7.037-15.816,1.867c-5.875-5.473-8.637-12.65-10.006-20.159
		c-2.44-13.385-2.294-26.845,3.903-39.312c2.442-4.913,6.356-9.22,10.134-13.309c4.258-4.61,14.37-5.091,20.287-0.925
		c1.69,1.19,2.268,4.564,2.561,7.03c1.207,10.161,1.58,20.452,3.356,30.501c0.825,4.669,3.746,9.17,6.467,13.247
		c2.894,4.336,5.205,4.234,6.934-0.492c3.253-8.892,6.733-17.943,8.073-27.223c1.202-8.32-0.513-17.035-0.636-25.58
		c-0.167-11.554-0.042-23.113-0.042-34.669C392.16,186.076,392.16,183.752,392.16,180.583z M359.247,232.416
		c-8.327-0.377-13.968,7.434-16.043,14.795c-3.946,14.001-4.04,28.001,4.505,41.021C354.72,270.301,358.372,251.823,359.247,232.416
		z"/>
	<path fill="#821911" d="M853.812,918.324c0.885-10.231,1.292-21.065,2.912-31.714c1.287-8.463,5.224-16.187,12.032-21.729
		c5.68-4.623,16.229-4.167,22.997,5.255c9.35,13.017,13.556,28.117,17.009,43.404c4.229,18.725,7.305,37.642,7.171,56.946
		c-0.081,11.617,0.578,23.274-0.17,34.843c-0.924,14.282-4.963,27.836-12.951,39.969c-0.273,0.414-0.469,0.884-0.771,1.273
		c-8.142,10.504-17.147,10.061-24.751-0.951c-8.953-12.964-12.934-27.813-15.508-42.905c-2.556-14.984-3.755-30.215-5.174-45.373
		C855.411,944.575,854.753,931.758,853.812,918.324z M888.447,1026.83c6.783-9.987,7.734-21.25,8.179-32.339
		c1.009-25.164-0.014-50.308-5.024-75.06c-2.408-11.898-5.888-23.603-9.388-35.243c-1.142-3.797-3.125-7.888-8.358-8.809
		C869.869,927.129,873.277,977.549,888.447,1026.83z"/>
	<path fill="#821911" d="M960.177,961.177c-0.984-16.785-2.194-34.557-2.975-52.348c-0.26-5.92,0.21-11.946,1.127-17.802
		c0.309-1.97,2.711-4.328,4.719-5.18c6.057-2.57,12.409-3.193,18.833-0.84c9.719,3.56,17.17,9.658,22.175,18.821
		c8.941,16.368,13.946,33.587,14.588,52.45c0.85,24.959-1.517,49.216-11.251,72.356c-3.189,7.58-6.928,15.057-11.453,21.894
		c-2.388,3.608-6.992,5.763-10.647,8.506c-0.483,0.362-1.33,0.199-1.907,0.484c-6.19,3.051-6.233,3.081-10.286-2.689
		c-5.855-8.335-8.483-17.655-9.054-27.804c-1.094-19.448-2.582-38.874-3.845-58.313
		C960.019,967.879,960.177,965.024,960.177,961.177z M967.902,900.577c8.814,41.719,14.054,83.524,16.524,127.071
		c1.424-2.653,2.196-3.912,2.801-5.247c8.634-19.036,10.258-39.249,10.223-59.792c-0.023-13.71-2.06-26.936-7.153-39.751
		C986.13,912.374,980.343,903.821,967.902,900.577z"/>
	<path fill="#821911" d="M682.581,263.576c-5.88,7.341-11.413,15.071-17.804,22.012c-7.565,8.216-15.929,6.704-21.303-2.981
		c-6.081-10.958-7.854-22.998-9.328-35.863c-4.261,8.52-8.288,16.574-12.315,24.627c-0.705-0.161-1.411-0.323-2.116-0.484
		c0.169-1.785,0.003-3.682,0.558-5.337c4.333-12.925,8.806-25.803,13.231-38.697c0.316-0.922,0.805-1.842,0.863-2.785
		c0.722-11.611,1.322-23.231,2.084-34.839c0.26-3.955,0.886-7.886,1.454-12.764c-11.725,0.965-23.392,1.925-35.422,2.914
		c3.817-6.08,19.833-11.855,37.318-13.853c2.892-14.815,5.496-29.729,8.819-44.481c1.547-6.866,4.205-13.534,6.905-20.067
		c1.722-4.168,6.482-5.825,10.975-4.465c3.981,1.205,4.073,4.507,4.245,8.035c0.934,19.178-3.898,37.429-8.6,55.717
		c-0.24,0.932-0.361,1.894-0.602,3.189c10.393-1.069,20.486-2.106,30.402-3.126c1.981,4.382-0.541,5.476-3.207,6.133
		c-8.965,2.211-17.987,4.197-26.933,6.479c-1.37,0.349-3.17,1.575-3.563,2.787c-3.341,10.295-7.874,20.5-9.177,31.086
		c-1.632,13.262-0.872,26.868-0.491,40.307c0.195,6.866,1.639,13.724,2.874,20.522c0.579,3.19,1.999,6.227,3.392,10.394
		c3.563-3.543,6.515-6.55,9.545-9.475c4.939-4.768,11.312-8.713,14.498-14.442c2.995-5.385,2.523-12.653,3.802-19.047
		c2.347-11.732,7.256-22.294,17.166-29.331c3.917-2.781,9.388-3.959,14.31-4.555c3.978-0.481,7.616,1.815,9.246,7.224
		c5.416-5.095,10.484-9.864,15.552-14.632c0.427,0.167,0.854,0.333,1.281,0.5c-0.428,2.628-0.152,5.674-1.415,7.806
		c-3.941,6.651-8.627,12.856-12.679,19.446c-1.557,2.533-2.354,5.589-3.203,8.492c-3.725,12.736-8.544,24.951-16.824,35.504
		C697.444,276.585,688.264,277.037,682.581,263.576z M701.147,216.356c-8.969,13.311-12.106,27.839-7.937,44.79
		c10.797-9.929,15.342-21.979,18.864-33.362C708.19,223.722,704.853,220.233,701.147,216.356z"/>
	<path fill="#821911" d="M263.81,264.34c-6.975-1.239-13.986-1.757-20.515-3.811c-10.394-3.27-15.071-12.272-18.966-21.603
		c-10.407-24.927-3.824-47.454,9.538-69.182c10.793-17.552,25.535-30.539,44.484-38.301c13.406-5.491,27.079-5.349,40.042,2.08
		c6.493,3.721,8.828,10.016,9.373,16.996c0.161,2.063-1.073,4.235-1.667,6.357c-0.501,0.056-1.001,0.112-1.502,0.168
		c-0.822-1.421-1.842-2.766-2.431-4.278c-2.678-6.872-7.841-9.324-14.976-10.195c-16.838-2.055-29.731,5.407-41.997,15.489
		c-13.41,11.022-23.209,24.507-29.085,40.791c-4.251,11.78-2.709,23.151,1.888,34.7c3.592,9.025,10.336,11.801,18.859,12.615
		c1.826,0.174,3.689,0.123,5.525,0.008c4.268-0.269,7.584-1.547,9.808-5.921c4.921-9.681,10.706-18.918,20.626-24.359
		c2.798-1.534,6.16-2.482,9.348-2.775c8.26-0.76,9.032,3.603,6.95,10.025c-4.627,14.276-14.364,24.783-26.545,33.104
		c-2.898,1.98-4.206,4.179-5.211,7.68c-3.418,11.913-0.586,22.839,3.926,33.617c1.716,4.099,4.904,6.697,9.793,5.949
		c9.795-1.5,19.865-2.35,25.616-12.408c0.78-1.365,2.761-2.211,4.356-2.907c3.537-1.543,5.482-0.096,8.101,2.895
		c4.066,4.645,4.722,8.506,2.068,13.99c-2.45,5.065-6.463,7.659-11.073,10.155c-8.654,4.686-17.376,8.666-27.57,8.503
		c-6.969-0.112-12.479-3.414-16.29-8.377c-8.989-11.705-13.42-25.33-13.709-40.123C262.498,271.453,263.407,267.664,263.81,264.34z"
		/>
	<path fill="#821911" d="M226.87,999.418c0.857,9.123,1.037,18.1,2.691,26.797c1.926,10.13,4.374,20.311,8.08,29.896
		c2.303,5.958,6.98,11.185,11.311,16.108c3.045,3.462,7.042,0.891,9.45-1.411c4.281-4.094,8.262-8.666,11.532-13.592
		c1.947-2.932,4.349-3.524,6.643-2.565c1.495,0.625,2.924,3.449,2.923,5.286c-0.008,13.761-3.848,26.384-12.267,37.429
		c-5.563,7.297-16.723,8.617-24.203,3.532c-16.257-11.053-24.379-27.241-28.615-45.577c-3.784-16.374-5.673-33.132-5.092-49.957
		c0.864-25.014,2.836-49.97,11.07-73.865c1.902-5.519,4.847-10.939,8.393-15.58c8.48-11.099,26.126-9.405,34.371,2.816
		c6.751,10.006,7.317,20.915,5.802,32.389c-1.57,11.894-5.94,22.594-13.155,32.059C248.776,992.401,240.3,999.485,226.87,999.418z
		 M227.453,987.298c7.801-3.497,13.337-8.607,17.874-14.814c8.403-11.497,11.247-24.434,8.817-38.365
		c-1.121-6.424-4.812-10.067-9.156-10.354c-6.021-0.397-8.149,4.09-10.338,8.436c-0.444,0.883-0.903,1.791-1.139,2.74
		C229.297,951.86,226.846,968.985,227.453,987.298z"/>
	<path fill="#821911" d="M791.327,222.617c9.439-1.243,18.216-2.752,27.058-3.445c6.525-0.511,9.045,3.101,6.283,9.037
		c-1.735,3.728-4.541,7.265-7.661,9.973c-5.378,4.667-11.304,8.721-17.129,12.851c-9.175,6.506-13.283,16.027-16.613,26.282
		c-3.815,11.75-8.114,23.351-12.519,34.896c-0.796,2.086-3.277,5.144-4.696,4.997c-2.118-0.218-4.297-2.624-5.899-4.557
		c-4.852-5.851-3.11-12.564-1.697-18.994c3.391-15.428,7.059-30.794,10.579-46.194c0.181-0.793,0.023-1.664,0.023-3.348
		c-2.346,0.394-4.512,1.115-6.636,1.007c-1.92-0.098-4.175-0.686-5.507-1.904c-0.559-0.511,0.417-3.623,1.502-4.82
		c2.313-2.551,4.803-5.514,7.848-6.714c6.979-2.749,8.753-8.249,9.853-14.699c5.476-32.086,16.46-62.311,31.168-91.247
		c5.898-11.604,13.779-21.049,27.457-23.559c7.924-1.454,15.886-1.843,23.148,2.469c1.898,1.127,3.14,3.362,4.683,5.087
		c-2.261,1.941-4.242,4.648-6.862,5.609c-2.658,0.975-5.95,0.298-8.961,0.217c-9.291-0.249-16.378,4.017-21.5,11.298
		c-10.287,14.622-16.112,31.425-21.71,48.136c-4.852,14.485-8.219,29.47-12.176,44.251
		C791.078,220.314,791.327,221.524,791.327,222.617z"/>
	<path fill="#821911" d="M768.154,1057.593c-0.042,11.868-10.044,23.185-21.292,25.032c-6.71,1.102-10.573-2.804-13.96-7.33
		c-8.016-10.712-9.691-23.653-12.015-36.282c-7.788-42.326-5.664-85.067-4.982-127.726c0.272-17.023,1.286-34.033,1.921-51.051
		c0.125-3.348,0.981-5.772,4.959-6.144c3.703-0.346,4.925,1.179,5.358,4.711c1.06,8.647,2.797,17.214,3.76,25.87
		c1.555,13.975,2.756,27.991,4.011,41.998c0.784,8.758,1.534,17.523,2.048,26.299c0.797,13.621,0.831,27.31,2.186,40.87
		c1.805,18.054,4.558,36.014,6.924,54.011c0.421,3.202,1.913,3.687,5.203,3.115c3.762-0.654,7.833-0.122,11.68,0.474
		C767.432,1051.978,768.941,1054.451,768.154,1057.593z"/>
	<path fill="#821911" d="M553.961,1027.159c-0.618-16.95-1.125-32.931-1.82-48.903c-0.291-6.682-0.471-13.252,2.612-19.481
		c2.915-5.888,7.936-6.693,11.292-1.09c2.186,3.649,3.803,8.225,3.908,12.43c0.428,17.228,0.308,34.475,0.138,51.712
		c-0.149,15.195-0.31,30.404-1.143,45.57c-0.288,5.25-2.23,10.535-4.145,15.525c-1.168,3.042-3.353,5.016-7.309,1.945
		c-6.808-5.284-10.233-12.638-12.399-20.288c-3.978-14.054-6.858-28.419-10.207-42.652c-0.444-1.885-0.954-3.755-1.433-5.632
		c-0.507,0.021-1.014,0.042-1.521,0.063c0,16.139,0.163,32.282-0.15,48.416c-0.057,2.915-1.77,8.061-3.235,8.253
		c-4.161,0.548-5.186-3.72-5.758-7.137c-1.142-6.83-2.393-13.68-2.879-20.573c-0.961-13.617-1.637-27.264-1.982-40.91
		c-0.106-4.195,1.26-8.426,1.935-12.643c1.364-8.518,13.414-11.536,18.859-7.414c1.824,1.381,3.539,3.561,4.2,5.714
		c3.56,11.592,6.772,23.29,10.114,34.949C553.161,1025.443,553.39,1025.842,553.961,1027.159z"/>
	<path fill="#821911" d="M397.4,1058.846c3.152-5.453,3.791-11.794,3.677-18.256c-0.041-2.303-0.658-4.59-0.876-6.898
		c-0.578-6.117-4.179-9.958-9.518-12.222c-11.364-4.819-18.132-13.872-20.062-25.37c-2.56-15.246,1.516-29.625,10.957-42.02
		c3.974-5.218,16.651-6.964,23.766-4.109c8.148,3.27,11.488,7.817,10.825,17.425c-0.456,6.613-2.072,13.252-4.018,19.62
		c-1.255,4.107-5.422,4.341-7.187,0.376c-1.96-4.404-2.482-9.434-3.801-14.144c-0.462-1.647-1.192-4.255-2.226-4.482
		c-1.936-0.426-4.702-0.094-6.21,1.087c-5.46,4.279-5.714,10.909-6.485,17.087c-0.982,7.868,2.456,13.372,9.765,16.527
		c15.96,6.888,22.082,19.738,22.414,36.398c0.21,10.585-0.478,20.801-5.087,30.63c-4.055,8.647-11.108,14.471-17.964,12.952
		c-6.328-1.402-10.658-5.896-14.087-11.169c-4.742-7.293-8.33-15.044-8.174-23.997c0.034-1.94,0.391-3.963,1.05-5.786
		c1.74-4.817,4.837-5.385,8.118-1.556C387.316,1046.818,392.274,1052.768,397.4,1058.846z"/>
	<path fill="#821911" d="M470.375,1018.292c0.719,17.648,5.242,32.909,15.133,46.286c3.127,4.229,7.288,7.414,13.303,4.95
		c0.981-0.402,2.269-0.057,3.737-0.057c1.132,8.492-2.571,14.812-8.343,19.789c-4.529,3.905-8.506,3.075-13.784-1.384
		c-10.123-8.551-15.564-20.053-19.544-32.219c-3.928-12.01-6.389-24.469-5.292-37.167c1.43-16.556,1.683-33.535,10.968-48.277
		c5.138-8.157,10.878-16.056,20.962-18.582c3.456-0.866,7.419-1.277,10.81-0.47c5.316,1.265,9.017,5.041,9.356,10.867
		c1.107,19.027-3.755,36.451-15.168,51.745C487.05,1021.094,479.739,1023.479,470.375,1018.292z M491.336,965.98
		c-12.95,5.497-21.355,21.773-19.091,36.893C481.449,1001.134,492.078,980.822,491.336,965.98z"/>
	<path fill="#821911" d="M438.449,943.608c-7.293-1.344-13.907-2.499-20.486-3.827c-1.393-0.281-3.155-0.842-3.888-1.88
		c-1.894-2.684-3.309-5.707-4.915-8.595c2.859-1.202,5.628-3.109,8.592-3.482c12.799-1.611,25.631-3.221,38.5-3.919
		c6.994-0.379,14.169,0.61,21.109,1.845c5.249,0.934,5.881,3.117,2.631,7.103c-6.387,7.834-14.012,13.584-24.887,13.012
		c-2.312-0.122-4.637-0.018-7.254-0.018c-0.134,1.579-0.306,2.857-0.342,4.138c-0.353,12.502-0.872,25.004-0.976,37.508
		c-0.162,19.513-0.149,39.03,0.01,58.543c0.088,10.833,0.399,21.677,1.038,32.49c0.401,6.79-1.982,12.63-4.858,18.41
		c-1.722,3.46-4.909,3.829-6.789,0.542c-3.934-6.878-7.568-13.975-7.578-22.218c-0.027-21.929-0.97-43.914,0.301-65.77
		c0.983-16.894,4.729-33.631,7.318-50.427C436.674,952.526,437.629,948.029,438.449,943.608z"/>
	<path fill="#821911" d="M614.87,905.806c-1.872,16.404-11.35,24.076-23.554,28.023c1.7,12.07,3.696,23.582,4.86,35.177
		c1.407,14.018,2.141,28.105,3.102,42.166c0.419,6.131,0.679,12.272,1.009,18.409c0.671,12.45,2.095,24.925,1.7,37.341
		c-0.204,6.421-3.352,12.849-5.717,19.065c-1.463,3.846-4.588,2.562-5.943,0.022c-3.071-5.756-7.537-11.766-7.812-17.837
		c-0.988-21.821-0.504-43.71-0.514-65.574c-0.007-15.401,0.094-30.802,0.135-46.202c0.017-6.347,0.003-12.693,0.003-19.507
		c-6.776,0.745-13.223,1.567-19.693,2.106c-2.424,0.202-5.505,0.595-7.216-0.615c-2.493-1.763-4.174-4.808-5.72-7.575
		c-0.157-0.281,2.788-2.839,4.604-3.596c14.557-6.063,29.101-12.178,43.845-17.759C603.004,907.541,608.605,907.105,614.87,905.806z
		"/>
	<path fill="#821911" d="M328.9,1054.94c-13.454-8.415-17.678-21.979-23.575-35.098c-2.719,6.295-4.887,12.155-7.762,17.644
		c-1.633,3.116-4.189,5.869-6.753,8.347c-3.159,3.053-5.592,1.783-7.207-1.998c-3.77-8.827-4.547-17.503,0.772-26.075
		c2.35-3.788,3.825-8.35,6.836-11.456c8.778-9.054,4.866-17.786,0.277-26.683c-2.793-5.415-5.893-10.676-8.598-16.133
		c-1.382-2.787-2.491-5.788-3.183-8.815c-0.658-2.877-0.368-5.935,3.347-6.702c3.142-0.649,5.208-0.019,6.895,3.675
		c2.263,4.953,6.182,9.137,9.286,13.722c3.063,4.525,5.995,9.138,9.417,14.377c3.147-4.374,6.197-8.523,9.148-12.742
		c2.66-3.803,5.434-7.554,7.741-11.567c1.922-3.345,4.445-4.143,8.216-3.22c0.822,6.969-2.894,12.692-5.387,18.617
		c-3.129,7.436-7.104,14.514-10.281,21.932c-0.832,1.943-0.67,4.792,0.073,6.85c3.563,9.873,8.17,19.421,11.026,29.477
		c1.816,6.394,1.331,13.468,1.619,20.248C330.867,1050.813,329.825,1052.334,328.9,1054.94z"/>
	<path fill="#821911" d="M929.931,990.124c0-20.557,0.126-41.116-0.041-61.672c-0.126-15.528-0.635-31.053-0.953-46.579
		c-0.051-2.486-0.502-5.094,3.33-5.471c3.805-0.374,4.136,2.653,4.473,4.758c1.641,10.241,2.896,20.544,4.307,30.823
		c1.253,9.128,2.639,18.238,3.765,27.381c0.909,7.382,1.428,14.813,2.284,22.202c1.176,10.159,2.524,20.299,3.765,30.451
		c0.762,6.234,1.62,12.462,2.158,18.716c0.824,9.579,2.151,19.206,1.806,28.759c-0.192,5.313-3.047,10.649-5.292,15.714
		c-0.946,2.134-3.034,2.81-5.736,0.736c-8.386-6.435-11.229-15.509-11.683-25.19c-0.634-13.513-0.16-27.078-0.16-40.62
		C931.28,990.13,930.606,990.127,929.931,990.124z"/>
	<path fill="#821911" d="M627.59,1078.631c-2.323-4.152-4.607-7.252-5.902-10.722c-5.359-14.353-8.578-29.12-8.437-44.583
		c0.198-21.598-0.042-43.201,0.167-64.799c0.026-2.662,0.875-6.286,2.712-7.761c4.049-3.252,8.506-0.59,9.269,4.96
		c2.04,14.848,4.462,29.66,5.954,44.564c1.52,15.185,2.819,30.46,2.85,45.699c0.019,9.281-2.494,18.574-4.005,27.84
		C630.001,1075.032,628.996,1076.104,627.59,1078.631z"/>
	<path fill="#821911" d="M358.086,953.984c0,11.928,0.006,23.387-0.002,34.847c-0.005,7.861-0.147,15.725-0.021,23.584
		c0.252,15.836,0.975,31.672,0.848,47.502c-0.069,8.523-1.994,16.902-6.551,25.624c-1.717-2.214-3.174-3.658-4.122-5.382
		c-9.504-17.279-10.267-35.697-8.61-54.969c1.93-22.448,6.744-44.262,11.118-66.232C351.778,953.77,354.276,953.237,358.086,953.984
		z"/>
	<path fill="#821911" d="M934.002,843.964c0.337,3.434,1.107,6.898,0.877,10.294c-0.191,2.817-1.182,5.75-2.492,8.283
		c-2.02,3.905-5.532,4.144-8.794,1.038c-7.182-6.84-7.931-17.05-0.983-23.679c1.79-1.708,5.888-1.635,8.783-1.264
		c1.35,0.173,2.359,3.007,3.523,4.635C934.611,843.502,934.306,843.733,934.002,843.964z"/>
	<path fill="#821911" d="M364.915,930.019c-1.543,3.928-2.844,7.982-4.799,11.693c-0.483,0.916-4.081,1.498-4.559,0.895
		c-2.805-3.538-5.867-7.197-7.381-11.348c-1.693-4.641,2.767-9.108,8.443-9.572C361.564,921.282,364.076,923.979,364.915,930.019z"
		/>
	<path fill="#821911" d="M852.514,187.269c0.064-4.666,4.918-10.541,9.425-11.396c5.68-1.078,9.102,2.403,7.621,8.017
		c-0.659,2.499-1.782,4.918-2.986,7.221c-1.813,3.468-4.606,6.126-8.731,4.723C854.124,194.569,852.389,191.306,852.514,187.269z"/>
	<path fill="#821911" d="M630.419,930.726c-1.811,4.275-3.067,7.994-4.924,11.383c-1.493,2.726-4.308,2.328-5.861,0.262
		c-2.439-3.245-4.449-6.886-6.099-10.6c-0.432-0.973,0.875-3.866,1.823-4.101c3.583-0.888,7.37-1.456,11.033-1.258
		C627.723,926.484,628.921,929.036,630.419,930.726z"/>
	<path fill="#821911" d="M432.121,209.228c-5.662-3.045-7.234-7.563-4.627-12.553c1.543-2.954,4.373-5.128,7.287-3.298
		c2.351,1.476,4.834,4.485,2.465,8.13C435.628,203.996,433.964,206.456,432.121,209.228z"/>
	<path fill="#EAC3B7" d="M548.175,466.4c1.753-2.488,3.507-4.976,5.324-7.555c3.015,1.827,6.058,3.67,9.463,5.733
		c-2.1,3.445-4.134,6.781-6.167,10.117c0.313,0.199,0.626,0.398,0.939,0.598c1.997-2.343,3.871-4.81,6.049-6.971
		c0.925-0.918,2.899-2.031,3.693-1.638c7.921,3.926,15.484,8.242,18.813,17.362c0.995,2.724,0.22,4.205-1.716,5.35
		c-3.118,1.845-6.286,3.781-9.684,4.946c-16.654,5.708-33.278,11.547-50.126,16.634c-22.438,6.774-42.985,17.661-63.826,27.987
		c-19.599,9.71-38.334,20.848-55.763,34.047c-8.996,6.813-17.449,14.345-26.138,21.564c-10.493,8.717-21.018,17.397-31.45,26.187
		c-8.791,7.406-17.663,14.732-26.157,22.47c-19.368,17.645-37.663,36.408-51.588,58.713c-12.973,20.78-23.695,42.82-29.082,66.942
		c-5.152,23.07,3.872,41.131,21.117,55.95c3.36,2.887,6.642,5.889,9.743,9.05c7.258,7.4,16.575,11.297,25.718,15.547
		c14.846,6.9,30.994,8.689,46.755,11.932c15.611,3.211,31.249,6.38,46.989,8.84c12.73,1.99,25.604,3.238,38.46,4.197
		c14.284,1.065,28.614,1.674,42.935,2.041c19.2,0.492,37.655-4.373,56.26-8.266c7.544-1.579,15.348-2.017,23.061-2.605
		c1.645-0.126,4.955,1.774,4.887,2.019c-0.807,2.919-1.799,5.905-3.448,8.409c-0.571,0.867-3.209,0.904-4.705,0.53
		c-4.348-1.087-8.596-2.574-13.224-4.011c-1.178,7.755,4.96,7.039,8.38,9.896c-2.608,1.728-5.117,3.391-7.143,4.734
		c-3.794-1.979-7.231-3.772-10.668-5.564c-0.511,0.6-1.021,1.201-1.532,1.801c1.42,2.417,2.841,4.834,5.002,8.511
		c-8.623,2.25-16.959,5.284-25.549,6.465c-12.793,1.759-25.773,2.139-38.66,3.256c-4.932,0.427-9.823,1.745-14.743,1.803
		c-6.629,0.077-13.269-0.643-19.9-1.08c-2.64-0.174-5.273-0.484-7.905-0.766c-15.927-1.709-31.875-3.242-47.77-5.209
		c-10.29-1.273-20.529-3.03-30.741-4.848c-11.957-2.128-23.878-4.475-35.783-6.884c-10.153-2.055-20.204-4.656-30.402-6.433
		c-14.436-2.516-26.233-10.555-38.485-17.63c-10.141-5.856-20.318-11.742-29.896-18.447c-6.916-4.841-12.876-11.047-19.382-16.75
		c2.689-3.924,5.117-7.467,8.077-11.786c-7.211-1.071-8.414,4.488-11.099,7.025c-2.586-2.107-5.143-4.19-7.777-6.336
		c3.594-5.705,11.394-7.181,12.116-14.994c-7.641-0.971-11.125,4.781-16.087,8.706c-1.916-2.968-3.808-5.898-5.648-8.746
		c3.29-4.44,10.44-5.631,9.185-13.024c-5.92-1.19-8.256,4.388-12.934,6.42c-1.112-2.496-2.245-4.997-3.344-7.513
		c-3.62-8.294-7.156-16.626-10.884-24.871c-1.057-2.337-1.363-3.884,1.533-4.969c16.748-6.274,27.812-18.537,35.821-33.971
		c-0.315-0.446-0.63-0.892-0.945-1.338c-3.419,2.483-7.026,4.746-10.223,7.488c-10.598,9.089-23.298,14.63-36.521,16.783
		c-12.622,2.056-25.744-1.557-36.254-9.159c-18.955-13.712-32.589-31.939-40.598-54.099c-5.449-15.075-2.271-28.524,6.997-41.382
		c8.022-11.129,19.218-14.357,31.815-15.415c20.575-1.728,37.47,5.968,52.015,19.969c4.211,4.053,8.705,7.811,13.086,11.719
		c9.909-6.499,6.032-15.387,3.897-23.967c-0.318-1.279-0.701-2.574-1.278-3.752c-4.211-8.592,1.684-14.732,5.591-20.931
		c6.981-11.076,12.305-22.46,12.554-35.871c0.225-12.117-1.24-23.502-7.673-34.326c-8.769-14.756-23.83-17.124-38.872-9.106
		c3.089-10.078,6.079-20.188,9.321-30.216c1.109-3.431,3.578-6.534,4.17-10.002c1.925-11.282,9.177-19.151,16.784-26.549
		c12.787-12.434,25.145-25.641,39.457-36.093c20.878-15.246,42.056-30.426,66.568-39.902c20.529-7.936,40.301-18.106,62.255-21.791
		c13.572-2.278,27.278-3.825,41.105-1.634c4.237,0.671,8.567,0.76,13.291,1.152c-2.31,1.864-4.297,3.468-6.284,5.071
		c0.11,0.524,0.22,1.048,0.33,1.572c3.088-0.423,6.23-0.615,9.256-1.308c15.164-3.475,32.148,2.834,40.435,15.157
		c8.349,12.414,0.686,28.315-13.975,30.838c-22.771,3.919-41.294-5.07-59.035-17.435c-1.648-1.149-3.446-2.083-6.114-3.679
		c1.897,10.951,7.892,17.996,14.408,24.557c11.405,11.482,25.988,14.729,41.444,14.385c6.163-0.137,12.393-1.711,18.403-3.333
		c12.43-3.354,18.814-17.021,19.988-28.232c0.309-2.949,0.047-5.958,0.047-8.864c11.935-1.975,26.343,4.267,32.196,13.93
		c-13.463,12.669-28.272,24.635-31.373,44.36c0.56,0.414,1.119,0.829,1.679,1.243c1.238-1.522,2.754-2.893,3.667-4.59
		c5.278-9.811,13.613-16.502,22.612-22.548c9.162-6.155,17.888-13.162,27.64-18.169c7.59-3.897,16.352-5.813,24.805-7.615
		c5.123-1.092,7.608,2.352,5.758,7.421c-2.135,5.851-4.888,11.51-7.754,17.055c-8.742,16.913-23.153,28.993-37.293,40.771
		c-15.62,13.01-32.592,24.473-49.484,35.854c-10.939,7.37-22.97,12.881-36.154,15.485c-7.16,1.414-11.057-2.306-9.918-9.594
		c1.846-11.808,9.282-18.574,19.761-22.742c2.753-1.095,5.558-2.27,8.449-2.752c3.872-0.646,8.16-1.505,9.442,4.262
		c0.214,0.963,1.61,1.989,2.661,2.292c0.476,0.138,1.703-1.297,2.143-2.229c2.835-6.008-1.07-12.647-7.749-12.626
		c-16.125,0.052-37.841,11.147-41.326,33.193c-0.683,4.321-0.678,9.37,0.915,13.313c4.548,11.256,10.311,11.476,22.106,9.057
		c19.459-3.991,35.92-14.623,51.642-26.323c9.968-7.418,20.233-14.505,29.659-22.566c9.636-8.241,18.685-17.229,27.429-26.425
		c3.562-3.746,6.163-5.025,10.75-2.082c4.396,2.821,9.262,4.91,14.039,7.382c-1.299,3.34-2.404,6.182-3.51,9.025
		C547.61,466.131,547.892,466.265,548.175,466.4z M321.683,522.068c2.919-0.476,5.869-0.811,8.752-1.452
		c19.617-4.358,30.019-31.134,27.113-43.928c-2.623-11.547-7.138-21.95-15.628-30.374c-9.459-9.385-19.151-18.474-32.442-22.256
		c-2.096-0.596-4.319-0.748-6.406-1.092c-1.173,4.799,1.96,5.778,4.563,7.223c17.99,9.987,32.344,22.968,36.862,44.24
		c3.42,16.104-12.317,33.193-29.298,30.446c-8.514-1.377-16.76-4.401-25.137-6.643c-7.695-2.059-15.403-4.069-23.105-6.101
		c-0.315,0.554-0.631,1.108-0.946,1.661c7.404,10.077,18.585,15.882,28.928,23.616c-3.832,0.826-7.018,1.503-10.2,2.202
		c-13.943,3.062-25.269,9.717-31.285,23.326c-1.735,3.925-3.307,8.091-1.295,11.953c14.72-13.391,31.898-20.68,51.209-21.995
		c20.883-1.422,35.891,10.337,49.528,25.658c0.502-1.952,1.335-3.317,0.953-3.98C345.981,540.943,336.801,528.573,321.683,522.068z
		 M153.657,704.902c-0.799,1.562-1.084,3.183-1.931,3.568c-2.192,0.997-4.61,1.929-6.977,2.038
		c-12.2,0.562-22.491-10.348-22.981-23.652c-0.353-9.584,3.802-17.637,7.98-25.71c2.521-4.871,5.401-9.556,8.12-14.325
		c-0.438-0.447-0.876-0.894-1.313-1.34c-4.453,3.43-8.906,6.86-13.565,10.449c-11.506-5.804-22.985-5.095-33.458,3.135
		c-6.688,5.256-10.635,12.295-10.933,20.865c5.9-4.149,11.299-8.584,17.286-11.983c6.265-3.557,13.141-5.853,21.139-3.935
		c-0.662,1.427-1.111,2.433-1.59,3.423c-3.587,7.406-6.504,15.156-3.607,23.298c4.621,12.99,9.185,26.435,26.384,27.599
		c6.532,0.442,12.607-0.418,17.245-5.656C158.599,709.125,157.537,705.937,153.657,704.902z M198.812,478.818
		c0.241,0.65,0.482,1.299,0.723,1.949c10.032-0.816,20.087-1.436,30.076-2.62c1.92-0.228,3.803-2.478,5.249-4.181
		c0.59-0.695,0.319-2.612-0.232-3.598c-0.321-0.575-1.975-0.575-3.02-0.541c-1.971,0.064-3.975,0.152-5.895,0.559
		c-7.2,1.524-14.414,3.018-21.525,4.895C202.221,475.798,200.594,477.603,198.812,478.818z M290.69,640.453
		c-9.821,3.799-18.296-0.08-26.538,0.62c-8.469,0.72-17.047,0.16-25.577,0.16c3.953,1.286,7.971,1.709,11.987,2.153
		c12.134,1.34,24.257,2.795,36.412,3.914c1.778,0.164,3.703-1.258,5.559-1.947C291.793,643.386,291.053,641.419,290.69,640.453z
		 M219.892,449.706c-0.347,0.794-0.694,1.589-1.042,2.383c5.565,2.968,11.029,6.154,16.736,8.819
		c3.206,1.497,6.256,0.644,7.615-3.116c1.414-3.914-1.244-5.857-4.231-6.313C232.667,450.518,226.258,450.255,219.892,449.706z
		 M282.113,600.251c0.289,0.328,0.579,0.656,0.868,0.984c14.76-14.763,29.52-29.526,44.281-44.288
		c-0.547-0.529-1.094-1.058-1.642-1.587C308.848,568.112,295.854,584.546,282.113,600.251z M310.183,553.769
		c-0.752-0.549-1.504-1.098-2.256-1.647c-11.648,13.894-23.296,27.789-34.943,41.684c0.459,0.387,0.918,0.773,1.376,1.16
		C286.558,581.452,300.039,569.032,310.183,553.769z M269.644,581.543c0.663,0.498,1.326,0.996,1.99,1.493
		c8.011-9.91,16.022-19.82,24.034-29.73c-0.505-0.621-1.011-1.241-1.516-1.862c-1.577,0.692-3.754,0.943-4.636,2.145
		C282.749,562.804,276.235,572.202,269.644,581.543z M238.673,664.551c0.085,0.644,0.171,1.287,0.256,1.931
		c2.212-0.358,4.446-0.616,6.633-1.091c8.952-1.943,17.92-3.825,26.805-6.041c1.789-0.446,3.239-2.252,4.845-3.431
		c-0.382-0.775-0.765-1.55-1.147-2.325C263.6,657.247,251.136,660.899,238.673,664.551z M238.181,432.929
		c-0.54,0.571-1.081,1.142-1.621,1.712c3.764,4.193,7.402,8.514,11.409,12.461c0.708,0.698,4.029,0.248,4.273-0.388
		c0.574-1.498,0.703-4.366-0.198-5.024C247.641,438.472,242.841,435.796,238.181,432.929z M270.07,672.739
		c-0.504-0.739-1.008-1.478-1.512-2.217c-8.642,4.278-17.283,8.557-25.925,12.835c0.245,0.584,0.49,1.169,0.736,1.753
		c7.799-2.898,15.639-5.693,23.358-8.79C268.099,675.77,268.968,673.965,270.07,672.739z"/>
	<path fill="#DB5D38" d="M349.145,848.043c-9.676-1.65-19.215-3.277-29.245-4.988c30.593-77.844,85.921-112.271,170.085-97.505
		c-9.34-10.712-49.746-15.404-80.828-8.184c-28.456,6.61-49.615,23.544-68.452,44.574c-0.345-0.292-0.69-0.584-1.035-0.876
		c1.86-2.631,3.683-5.29,5.587-7.889c11.859-16.185,28.518-26.565,44.93-37.291c16.146-10.551,33.788-15.823,52.996-17.393
		c18.127-1.481,35.798-0.421,52.69,6.309c13.803,5.499,25.296,13.894,31.805,28.209c3.425,7.532,2.39,13.845-2.084,19.961
		c-6.242,8.534-18.228,12.205-28.605,9.564c-13.043-3.32-26.035-7.141-39.288-9.226c-8.418-1.324-17.283-0.093-25.925,0.387
		c-6.589,0.367-13.279,0.753-19.688,2.184c-16.532,3.69-29.174,13.76-40.145,26.134
		C360.222,815.234,355.345,831.864,349.145,848.043z"/>
	<path fill="#FFFFFF" d="M451.019,639.335c-14.383-17.293-28.417-34.166-42.491-51.086c22.753-18.26,46.681-32.48,71.433-45.534
		c9.792,20.729,19.497,41.275,29.34,62.112C490.304,616.076,470.825,627.609,451.019,639.335z"/>
	<path fill="#FFFFFF" d="M518.683,599.685c-10.909-20.353-21.483-40.081-32.532-60.696c7.606-3.457,14.857-7.35,22.516-10.114
		c17.903-6.461,35.994-12.404,54.045-18.449c0.924-0.309,2.804,0.028,3.202,0.689c5.854,9.72,12.295,19.194,17.028,29.45
		c4.372,9.473,3.229,11.269-5.321,17.374C558.381,571.678,539.042,585.279,518.683,599.685z"/>
	<path fill="#FFFFFF" d="M474.606,864.075c-17.714-1.243-35.449-2.253-53.134-3.828c-8.656-0.771-17.33-2.117-25.787-4.093
		c-6.244-1.459-8.296-3.175-5.4-9.811c4.029-9.233,9.502-16.757,20.695-18.577c9.549-1.553,16.648,2.367,23.4,8.031
		c2.666,2.237,5.194,4.638,7.795,6.953c3.292,2.93,5.185,1.476,7.527-1.665c4.217-5.654,8.602-11.331,13.741-16.113
		c6.834-6.361,16.117-7.115,24.866-8.517c4.231-0.678,9.768,4.313,11.301,9.04c1.163,3.586,2.442,7.147,3.899,10.623
		c1.959,4.673,5.419,4.946,9.796,3.37c5.331-1.92,10.687-4.415,16.616-2.129c6.085,2.346,9.549,10.459,6.731,16.241
		c-0.401,0.823-1.727,1.453-2.736,1.683C514.406,859.741,495.021,865.163,474.606,864.075z"/>
	<path fill="#FFFFFF" d="M442.326,643.304c-16.563,9.772-33.144,19.555-50.09,29.553c-12.382-13.796-24.099-27.588-30.759-45.266
		c13.575-11.572,27.579-23.511,41.269-35.181C415.938,609.373,428.995,626.163,442.326,643.304z"/>
	<path fill="#FFFFFF" d="M387.155,674.728c-8.546,4.348-16.456,8.379-24.371,12.399c-8.612,4.374-15.495,3.322-22.901-3.154
		c-4.864-4.253-10.072-8.114-14.918-12.386c-2.32-2.045-4.158-4.635-6.635-7.458c11.849-10.253,23.511-20.344,35.562-30.771
		C361.697,649.58,373.823,662.463,387.155,674.728z"/>
	<path fill="#94BDAB" d="M107.348,346.245c13.098,21.639,26.142,43.189,38.919,64.298c-6.251,7.777-11.942,14.858-17.849,22.207
		c-1.011-1.773-2.444-4.023-3.626-6.398c-10.146-20.378-20.265-40.769-30.304-61.2c-0.471-0.958-0.612-2.728-0.048-3.44
		C98.414,356.697,102.613,351.86,107.348,346.245z"/>
	<path fill="#B6D6C7" d="M158.47,416.136c-8.524-8.351-12.958-18.811-18.626-28.487c-7.08-12.088-14.569-23.938-21.618-36.044
		c-2.886-4.956-5.143-10.287-7.529-15.518c-0.369-0.809-0.295-2.397,0.255-2.962c7.275-7.48,14.243-15.382,24.607-19.661
		c11.545,18.316,23.064,36.582,34.574,54.854c2.896,4.597,5.667,9.277,8.671,13.802c3.671,5.53,3.84,8.186-0.428,12.892
		C171.989,402.053,165.348,408.863,158.47,416.136z M172.028,390.242c-1.784-5.081-2.934-10.506-5.468-15.179
		c-8.081-14.9-16.658-29.531-25.086-44.242c-2.124-3.707-5.453-4.355-8.874-2.339c-2.733,1.61-4.703,4.658-7.524,5.947
		c-4.812,2.199-3.617,4.925-1.861,8.307c6.083,11.719,11.667,23.72,18.238,35.155c5.001,8.703,11.124,16.775,16.995,24.95
		c0.785,1.093,3.894,2.057,4.45,1.528C166.894,400.565,172.298,397.409,172.028,390.242z"/>
	<path fill="#94BDAB" d="M188.145,377.492c-15.211-21.423-30.47-42.914-45.687-64.345c3.481-2.348,7.256-4.895,11.173-7.537
		c15.918,22.048,31.771,44.006,47.564,65.881C197.173,373.341,192.65,375.421,188.145,377.492z"/>
	<path fill="#F2A158" d="M855.342,649.841c-0.678,1.314-3.71,2.255-5.498,2.015c-9.477-1.273-18.845-3.634-28.348-4.379
		c-15.622-1.224-31.317-1.962-46.985-2.024c-12.724-0.051-25.466,1.006-38.176,1.915c-10.394,0.743-20.773,1.811-31.12,3.054
		c-18.183,2.185-36.3,4.981-54.514,6.843c-20.316,2.077-40.405,4.802-59.368,12.899c0,0.424-0.101,0.8,0.021,1.08
		c0.26,0.597,0.607,1.163,0.967,1.709c4.738,7.17,7.502,15.109,7.891,23.618c0.842,18.484-0.345,36.835-4.97,54.85
		c-1.303,5.075-2.564,10.16-3.789,15.021c21.023-5.665,42.739-11.493,64.441-17.371c20.94-5.672,41.959-9.989,63.948-8.453
		c22.425,1.567,44.912,2.353,67.386,3.056c13.99,0.437,28.006,0.062,42.009,0.094c7.407,0.017,14.378-3.444,17.439-11.84
		c9.336-25.603,13.153-52.475,19.316-78.806c0.008-0.032,0.035-0.06,0.044-0.092c-3.138-2.721-6.48-4.833-10.399-5.21
		C855.8,648.395,855.749,649.053,855.342,649.841z M665.173,684.576c-7.789,11.807-16.474,22.84-27.734,31.598
		c-1.328,1.033-2.823,1.851-4.241,2.769c-0.239-0.368-0.478-0.736-0.718-1.105c8.9-12.49,17.663-25.081,26.814-37.384
		c1.82-2.448,4.299-7.323,8.167-4.27C671.042,679.012,666.881,681.987,665.173,684.576z M709.192,702.449
		c-0.129,0.128-0.602-0.088-2.262-0.383c12.04-12.364,18.502-28.803,33.562-37.334c0.532,0.325,1.064,0.65,1.596,0.975
		c-0.364,1.648-0.176,3.833-1.177,4.861C730.455,681.31,719.81,691.867,709.192,702.449z M726.535,715.377
		c-2.945,3.131-6.937,5.278-10.45,7.875c-0.276-0.328-0.552-0.656-0.828-0.984c7.937-10.428,15.474-21.195,23.925-31.188
		c8.45-9.991,17.814-19.208,26.777-28.764c-0.323-0.3-0.646-0.6-0.969-0.9c1.164,0,2.328,0,4.508,0
		c-0.621,2.187-0.671,4.426-1.767,5.872c-5.004,6.602-10.125,13.134-15.536,19.404C743.814,696.405,735.323,706.035,726.535,715.377
		z M754.603,717.265c-0.471-0.365-0.943-0.729-1.414-1.094c1.63-2.169,3.189-4.396,4.904-6.496
		c8.6-10.528,17.151-21.098,25.955-31.453c1.442-1.695,4.058-2.392,6.132-3.55c0.635,0.773,1.269,1.546,1.904,2.319
		C783.443,693.937,769.432,705.975,754.603,717.265z"/>
	<path fill="#E2B686" d="M915.136,621.058c-4.7,0.482-9.447,1.392-14.191,1.372c-11.088-0.047-22.246,0.124-33.241-1.05
		c-9.801-1.046-16.068-8.667-22.676-15.226c-7.114-7.061-12.264-15.32-13.958-25.183c-1.699-9.896-1.662-19.829,4.693-28.907
		c-6.792-0.241-12.354-2.661-15.99-7.583c-7.369-9.976-12.389-21.035-12.467-33.799c-0.03-4.958-0.005-9.916-0.005-14.95
		c-3.597,0.686-6.654,1.26-9.706,1.852c-14.176,2.746-21.22,10.268-23.538,24.642c-0.338,2.101-1.53,4.714-3.177,5.797
		c-2.324,1.529-5.441,1.855-8.22,2.69c-30.98,9.314-59.947,23.191-87.893,39.248c-17.743,10.195-35.672,20.207-52.565,31.699
		c-13.168,8.958-27.982,16.637-34.597,33.034c-2.814,6.976-7.683,13.108-11.425,19.733c-1.612,2.854-0.541,5.681,2.679,5.717
		c4.885,0.055,10.147-0.03,14.611-1.731c18.209-6.939,37.192-9.857,56.354-12.171c8.687-1.049,17.369-2.164,26.024-3.448
		c11.891-1.763,23.739-3.814,35.634-5.554c9.962-1.458,19.942-2.854,29.955-3.883c6.953-0.715,14.013-1.397,20.957-0.971
		c14.221,0.873,28.38,2.726,42.595,3.758c16.048,1.164,31.688,4.122,47.002,9.032c1.798,0.576,3.291,1.385,3.648,2.643
		c3.92,0.377,7.261,2.49,10.399,5.21c0.337-1.162,1.748-2.073,2.649-3.103c0.665,1.106,1.473,2.155,1.941,3.338
		c0.286,0.723,0.127,1.664,0.03,2.49c-0.059,0.501-0.107,1.004-0.165,1.505c0.12,0.12,0.241,0.24,0.361,0.36
		c-0.12-0.12-0.241-0.24-0.361-0.36c-1.557,13.612-2.651,27.306-5.004,40.78c-2.37,13.571-5.884,26.964-9.39,40.305
		c-2.334,8.882-7.753,15.263-17.411,16.874c-3.891,0.649-7.835,1.702-11.719,1.564c-22.98-0.812-45.955-1.837-68.922-2.97
		c-8.449-0.417-16.895-1.124-25.304-2.049c-18.314-2.014-36.574-1.711-54.486,2.559c-25.862,6.166-52.197,10.46-77.404,19.308
		c-5.322,1.868-11.894-0.394-13.253-4.093c-1.2-3.267-1.985-6.687-3.028-10.295c-2.757,2.613-4.977,5.556-7.911,7.294
		c-3.987,2.361-5.913,4.889-4.391,7.609c-1.552,4.285-3.849,7.397-3.381,10.014c0.957,5.342,6.713,9.183,12.367,8.743
		c5.517-0.429,11.255-0.966,16.39-2.842c21.142-7.723,42.835-13.059,65.099-16.06c12.295-1.657,24.651-2.874,36.993-4.158
		c13.49-1.403,26.974-3.368,40.5-3.783c15.507-0.476,31.066,0.282,46.586,0.909c6.904,0.279,13.783,1.448,20.648,2.39
		c13.062,1.793,25.888,4.637,39.387,2.77c13.771-1.904,23.752-15.103,25.731-26.243c2.103-11.842,3.396-23.839,5.793-35.616
		c3.453-16.963,7.582-33.789,11.416-50.64c-1.381-0.276-3.04-0.607-6.114-1.221c3.254-3.066,5.235-5.545,7.763-7.177
		c4.276-2.759,8.866-5.041,13.38-7.417C913.189,639.414,917.19,630.887,915.136,621.058z M798.101,521.01
		c-7.238,7.345,1.32,15.828-1.427,23.689C787.387,540.29,789.05,523.119,798.101,521.01z M795.726,561.982
		c1.098,5.695,0.358,5.156-16.788,4.661C784.31,561.519,789.962,561.552,795.726,561.982z M784.422,592.879
		c1.333,0.078,2.525,2.537,3.782,3.897c-1.6,0.761-3.276,2.295-4.79,2.149c-6.572-0.632-13.077-1.935-19.645-2.626
		c-3.72-0.391-7.514-0.07-11.274-0.07c-0.221-0.352-0.443-0.703-0.664-1.055c3.084-0.912,6.141-2.484,9.255-2.607
		C768.854,592.259,776.659,592.422,784.422,592.879z M748.495,572.166c-12.772,3.336-25.428,7.12-38.129,10.73
		c-0.243-0.491-0.486-0.981-0.729-1.472c12.703-8.213,26.071-14.727,41.987-15.726C752.381,569.064,752.518,571.115,748.495,572.166
		z M733.542,549.868c1.111-0.026,2.963,1.169,3.194,2.111c0.258,1.055-0.706,3.372-1.535,3.584
		c-8.727,2.227-17.534,4.142-26.795,6.252C715.612,554.908,723.489,550.1,733.542,549.868z M686.465,584.383
		c0.976,3.492-1.111,4.774-3.958,5.647c-6.441,1.975-12.875,3.974-19.272,6.083c-1.846,0.608-3.558,1.622-5.257,2.415
		C658.484,591.307,675.369,582.818,686.465,584.383z M864.489,636.138c-7.267-0.455-14.528-1.166-21.755-2.072
		c-14.787-1.854-29.515-4.243-44.333-5.778c-28.22-2.923-56.567-4.032-84.902-2.904c-14.664,0.584-29.271,2.906-43.872,4.693
		c-12.635,1.546-25.223,3.468-37.839,5.174c-3.874,0.524-7.77,0.882-11.655,1.316c-0.188-0.606-0.374-1.211-0.562-1.817
		c6.096-2.513,11.998-5.806,18.328-7.38c14.206-3.532,28.528-6.812,42.977-9.091c20.53-3.238,41.26-5.332,62.088-4.082
		c12.021,0.721,23.977,2.516,35.968,3.774c7.241,0.76,14.526,1.174,21.731,2.18c10.585,1.478,21.161,3.115,31.66,5.111
		c12.089,2.297,24.09,5.059,36.129,7.619c0.21,0.387,0.42,0.774,0.63,1.162C867.549,634.781,865.971,636.231,864.489,636.138z"/>
	<path fill="#EAC3B7" d="M1017.544,688.698c-4.736,8.145-9.564,14.756-12.634,22.102c-5.378,12.869-10.95,25.89-14.123,39.392
		c-4.503,19.163,0.86,36.682,13.812,51.719c3.878,4.502,7.532,9.197,11.289,13.803c0.906-0.642,1.812-1.284,2.718-1.927
		c-0.534-2.197-0.818-4.493-1.645-6.573c-3.039-7.646-6.107-15.287-9.443-22.806c-6.042-13.615-6.16-27.535-1.91-41.482
		c5.551-18.215,12.252-36.058,24.796-50.785c11.504-13.506,24.737-24.983,42.002-30.814c2.816-0.951,5.643-1.962,8.285-3.299
		c1.383-0.7,2.376-2.169,3.545-3.291c-0.306-0.684-0.613-1.369-0.919-2.053c-8.006,1.682-16.011,3.364-24.644,5.178
		c-0.903-1.693-2.129-3.968-3.333-6.256c-1.219-2.318-2.415-4.649-4.136-7.967c2.687,0,4.643,0.207,6.541-0.036
		c7.619-0.976,12.774-5.848,17.47-11.365c7.204-8.464,13.769-17.273,14.892-29.178c-9.218,11.538-19.845,21.477-32.798,30.531
		c3.333-9.18,8.199-16.758,8.281-25.631c-0.471-0.174-0.941-0.348-1.412-0.522c-4.224,8.011-8.306,16.101-12.704,24.015
		c-8.415,15.145-17.46,30.03-30.99,41.136c-12.867,10.562-26.233,20.926-42.79,25.127c-6.64,1.685-13.811,1.633-20.747,1.703
		c-7.531,0.076-17.449-15.304-12.807-23.759c6.088-11.088,15.681-16.64,26.487-21.313c13.964-6.039,28.529-11.48,38.492-23.644
		c5.924-7.233,10.437-15.651,15.337-23.686c9.187-15.063,17.446-30.945,30.182-43.297c10.247-9.937,22.993-15.996,37.906-15.952
		c6.983,0.02,13.993-0.435,20.33,3.413c11.106,6.744,17.786,17.036,20.874,29.126c4.193,16.415,4.959,33.206,4.574,50.29
		c-0.832,36.975-12.237,71.274-23.548,105.817c-9.163,27.98-22.358,53.817-39.94,77.18c-14.787,19.648-33.578,34.428-57.753,41.94
		c-21.52,6.687-47.642-7.099-57.85-25.606c-6.03-10.932-13.463-21.113-20.611-31.391c-1.833-2.635-4.927-4.422-7.532-6.485
		c-3.259-2.581-7.514-3.494-9.446-8.319c-0.949-2.37-5.674-4.332-8.807-4.518c-9.216-0.545-18.501-0.38-27.735,0.042
		c-5.572,0.255-11.412,0.626-16.584,2.475c-14.557,5.203-29.032,10.745-43.154,17.02c-12.101,5.377-24.112,10.572-37.402,12.129
		c-5.435,0.637-13.425-7.016-13.66-14.031c-0.193-5.777,0.472-11.594,0.964-17.376c0.234-2.754,1.744-3.764,4.785-3.318
		c12.072,1.773,24.17,3.398,36.29,4.798c8.06,0.931,16.165,1.769,24.267,1.988c22.489,0.609,37.372-14.396,42.099-35.262
		c2.325-10.262,3.984-20.675,6.03-31.471c10.88,1.956,21.239,4.791,28.33,15.311c4.572,6.783,10.555,12.748,16.54,18.409
		c6.877,6.505,15.052,5.512,22.909,1.721c12.928-6.237,21.361-17.087,28.727-28.913c1.66-2.665,3.598-5.291,4.593-8.212
		c3.77-11.077,14.465-14.908,22.234-21.786C1013.401,691.56,1014.937,690.609,1017.544,688.698z M1044.485,800.751
		c-4.06-10.12-12.698-17.621-14.217-29.046c-1.483-11.144-0.516-21.928,2.371-33.502c-13.659,9.3-16.685,25.534-9.901,41.114
		C1026.933,788.953,1031.353,799.328,1044.485,800.751z M975.976,673.71c24.148,6.475,41.198-4.651,43.998-17.502
		C1005.167,662.098,990.572,667.904,975.976,673.71z"/>
	<path fill="#EAC3B7" d="M1083.691,536.239c-10.308,5.839-21.223,10.857-30.723,17.809c-6.479,4.742-11.414,11.869-16.268,18.494
		c-7.699,10.508-14.754,21.488-20.932,30.578c-0.555-12.303-1.194-26.476-1.855-41.156c1.158,0.312,3.385,1.157,5.682,1.441
		c1.442,0.178,4.171-0.276,4.268-0.814c0.311-1.737,0.324-4.219-0.708-5.395c-7.477-8.522-14.993-10.046-24.628-3.869
		c-7.324,4.696-13.584,11.018-20.604,16.231c-13.134,9.753-26.028,19.944-39.881,28.573c-9.956,6.202-21.807,8.259-33.632,8.91
		c-7.642,0.421-15.291,0.928-22.94,0.971c-17.655,0.1-35.282-13.511-39.377-30.758c-1.102-4.639-0.435-9.695-0.612-14.559
		c-0.164-4.512,3.144-6.496,6.504-6.658c8.041-0.388,16.207-0.575,24.176,0.379c20.491,2.451,40.925,4.945,60.561-3.892
		c4.45-2.002,8.668-5.004,12.261-8.335c10.8-10.011,21.805-19.902,31.637-30.823c7.819-8.686,16.516-15.859,26.32-21.973
		c11.042-6.887,23.167-10.495,35.891-8.561c6.064,0.922,11.777,5.315,17.237,8.783c9.497,6.032,14.656,15.46,18.87,25.571
		C1077.789,524.026,1081.114,530.668,1083.691,536.239z M949.362,573.594c-0.233-0.418-0.466-0.835-0.699-1.252
		c-21.463,2.215-42.927,4.43-64.761,6.683c5.013,6.188,21.573,11.516,30.949,9.908C927.693,586.73,938.856,580.794,949.362,573.594z
		"/>
	<path fill="#EAC3B7" d="M1042.677,467.885c-12.067,1.649-23.273,1.735-33.523,4.91c-16.771,5.195-30.294,15.962-41.301,29.76
		c-2.699,3.384-5.838,6.422-8.823,9.573c-6.667,7.037-13.468,13.951-20.024,21.09c-7.856,8.554-17.981,12.859-29.063,13.318
		c-18.596,0.77-37.246,0.182-55.874,0.248c-2.109,0.008-4.21,0.712-6.327,0.798c-1.755,0.072-4.252,0.4-5.177-0.571
		c-7.235-7.587-16.493-13.282-20.445-23.931c-5.768-15.543-7.19-30.995,0.7-45.902c2.519-4.759,7.688-8.54,12.406-11.592
		c4.667-3.02,6.219-1.888,8.671,3.226c5.479,11.426,12.126,22.13,24.731,26.545c12.958,4.538,26.408,5.243,40.101,2.919
		c21.668-3.678,39.361-14.991,56.787-27.494c13.915-9.984,28.137-19.845,44.654-25.288c3.004-0.99,7.223-1.046,9.916,0.341
		c5.984,3.082,11.855,6.807,16.791,11.339C1039.866,459.916,1041.017,464.657,1042.677,467.885z M909.982,519.442
		c-19.315,0.962-38.451,2.457-55.505-10.591c0.135,9.59,5.534,15.025,11.558,19.213c11.387,7.916,24.09,5.712,36.286,2.183
		C906.377,529.073,909.307,525.008,909.982,519.442z"/>
	<path fill="#821911" d="M321.683,522.068c15.118,6.505,24.298,18.875,32.165,32.504c0.383,0.663-0.451,2.028-0.953,3.98
		c-13.637-15.321-28.645-27.08-49.528-25.658c-19.311,1.315-36.49,8.604-51.209,21.995c-2.011-3.863-0.44-8.028,1.295-11.953
		c6.015-13.609,17.342-20.263,31.285-23.326c3.182-0.699,6.368-1.375,10.2-2.202c-10.343-7.734-21.524-13.539-28.928-23.616
		c0.315-0.554,0.631-1.108,0.946-1.661c7.702,2.032,15.41,4.041,23.105,6.101c8.377,2.242,16.623,5.266,25.137,6.643
		c16.981,2.747,32.718-14.342,29.298-30.446c-4.518-21.272-18.872-34.253-36.862-44.24c-2.603-1.445-5.735-2.423-4.563-7.223
		c2.087,0.344,4.31,0.495,6.406,1.092c13.291,3.782,22.983,12.87,32.442,22.256c8.49,8.424,13.005,18.827,15.628,30.374
		c2.907,12.795-7.495,39.57-27.113,43.928C327.552,521.256,324.602,521.591,321.683,522.068z"/>
	<path fill="#821911" d="M153.657,704.902c3.88,1.035,4.941,4.223,1.798,7.773c-4.638,5.238-10.712,6.098-17.245,5.656
		c-17.199-1.163-21.763-14.609-26.384-27.599c-2.897-8.142,0.021-15.892,3.607-23.298c0.48-0.99,0.929-1.996,1.59-3.423
		c-7.998-1.918-14.874,0.378-21.139,3.935c-5.987,3.399-11.386,7.833-17.286,11.983c0.298-8.571,4.245-15.609,10.933-20.865
		c10.473-8.23,21.952-8.94,33.458-3.135c4.659-3.589,9.112-7.019,13.565-10.449c0.438,0.447,0.876,0.894,1.313,1.34
		c-2.719,4.769-5.6,9.454-8.12,14.325c-4.177,8.073-8.333,16.125-7.98,25.71c0.49,13.304,10.781,24.214,22.981,23.652
		c2.367-0.109,4.785-1.041,6.977-2.038C152.573,708.085,152.858,706.464,153.657,704.902z"/>
	<path fill="#821911" d="M198.812,478.818c1.782-1.215,3.409-3.019,5.375-3.538c7.111-1.876,14.326-3.37,21.525-4.895
		c1.921-0.407,3.924-0.495,5.895-0.559c1.045-0.034,2.699-0.034,3.02,0.541c0.551,0.986,0.822,2.903,0.232,3.598
		c-1.445,1.703-3.328,3.953-5.249,4.181c-9.988,1.184-20.044,1.804-30.076,2.62C199.294,480.117,199.053,479.467,198.812,478.818z"
		/>
	<path fill="#821911" d="M290.69,640.453c0.363,0.966,1.103,2.933,1.843,4.9c-1.857,0.688-3.781,2.11-5.559,1.947
		c-12.154-1.119-24.278-2.574-36.412-3.914c-4.016-0.443-8.035-0.866-11.987-2.153c8.53,0,17.108,0.56,25.577-0.16
		C272.395,640.373,280.869,644.253,290.69,640.453z"/>
	<path fill="#821911" d="M219.892,449.706c6.365,0.549,12.775,0.811,19.077,1.773c2.987,0.456,5.646,2.399,4.231,6.313
		c-1.359,3.761-4.408,4.613-7.615,3.116c-5.707-2.665-11.17-5.851-16.736-8.819C219.198,451.295,219.545,450.501,219.892,449.706z"
		/>
	<path fill="#821911" d="M282.113,600.251c13.741-15.705,26.735-32.139,43.507-44.891c0.547,0.529,1.094,1.058,1.642,1.587
		c-14.76,14.763-29.52,29.526-44.281,44.288C282.692,600.907,282.403,600.579,282.113,600.251z"/>
	<path fill="#821911" d="M310.183,553.769c-10.144,15.263-23.624,27.683-35.823,41.196c-0.459-0.387-0.918-0.773-1.376-1.16
		c11.648-13.895,23.296-27.789,34.943-41.684C308.679,552.67,309.431,553.22,310.183,553.769z"/>
	<path fill="#821911" d="M269.644,581.543c6.592-9.341,13.105-18.739,19.871-27.953c0.882-1.202,3.059-1.453,4.636-2.145
		c0.505,0.621,1.011,1.241,1.516,1.862c-8.011,9.91-16.022,19.82-24.034,29.73C270.97,582.538,270.307,582.041,269.644,581.543z"/>
	<path fill="#821911" d="M238.673,664.551c12.464-3.652,24.927-7.305,37.391-10.957c0.382,0.775,0.765,1.55,1.147,2.325
		c-1.606,1.179-3.056,2.985-4.845,3.431c-8.885,2.216-17.853,4.099-26.805,6.041c-2.187,0.475-4.421,0.733-6.633,1.091
		C238.843,665.839,238.758,665.195,238.673,664.551z"/>
	<path fill="#821911" d="M238.181,432.929c4.66,2.867,9.46,5.543,13.863,8.761c0.901,0.658,0.772,3.527,0.198,5.024
		c-0.244,0.636-3.565,1.086-4.273,0.388c-4.007-3.947-7.645-8.268-11.409-12.461C237.101,434.071,237.641,433.5,238.181,432.929z"/>
	<path fill="#821911" d="M270.07,672.739c-1.102,1.226-1.971,3.031-3.343,3.581c-7.719,3.097-15.559,5.892-23.358,8.79
		c-0.245-0.584-0.49-1.169-0.736-1.753c8.642-4.278,17.283-8.557,25.925-12.835C269.062,671.261,269.566,672,270.07,672.739z"/>
	<path fill="#821911" d="M172.028,390.242c0.27,7.167-5.134,10.324-9.131,14.127c-0.556,0.529-3.665-0.435-4.45-1.528
		c-5.871-8.175-11.994-16.247-16.995-24.95c-6.571-11.435-12.155-23.437-18.238-35.155c-1.756-3.382-2.95-6.109,1.861-8.307
		c2.821-1.289,4.791-4.336,7.524-5.947c3.421-2.015,6.751-1.368,8.874,2.339c8.427,14.711,17.005,29.342,25.086,44.242
		C169.094,379.736,170.244,385.161,172.028,390.242z M160.767,395.177c3.677-2.43,5.499-4.882,3.291-8.942
		c-9.206-16.926-18.319-33.901-27.7-51.29c-1.703,1.597-2.681,2.461-3.597,3.388c-0.926,0.937-1.789,1.937-2.694,2.925
		C139.65,359.597,145.602,379.82,160.767,395.177z"/>
	<path fill="#821911" d="M869.082,634.042c-1.534,0.739-3.111,2.189-4.593,2.096c-7.267-0.455-14.528-1.166-21.755-2.072
		c-14.787-1.854-29.515-4.243-44.333-5.778c-28.22-2.923-56.567-4.032-84.902-2.904c-14.664,0.584-29.271,2.906-43.873,4.693
		c-12.635,1.546-25.223,3.468-37.838,5.174c-3.874,0.524-7.77,0.882-11.656,1.316c-0.187-0.606-0.374-1.211-0.561-1.817
		c6.096-2.513,11.998-5.806,18.328-7.38c14.205-3.532,28.528-6.812,42.977-9.091c20.53-3.238,41.26-5.331,62.088-4.082
		c12.022,0.721,23.978,2.516,35.969,3.774c7.241,0.76,14.526,1.174,21.731,2.18c10.586,1.478,21.161,3.115,31.66,5.11
		c12.089,2.298,24.09,5.059,36.129,7.619C868.662,633.267,868.872,633.654,869.082,634.042z"/>
	<path fill="#821911" d="M764.991,661.416c1.164,0,2.328,0,4.508,0c-0.621,2.187-0.671,4.426-1.768,5.872
		c-5.004,6.602-10.125,13.134-15.536,19.404c-8.381,9.712-16.873,19.342-25.66,28.685c-2.945,3.131-6.937,5.278-10.45,7.875
		c-0.276-0.328-0.552-0.656-0.828-0.984c7.938-10.428,15.474-21.195,23.925-31.188c8.449-9.991,17.813-19.208,26.776-28.764
		C765.636,662.016,765.314,661.716,764.991,661.416z"/>
	<path fill="#821911" d="M632.48,717.839c8.9-12.49,17.663-25.081,26.814-37.384c1.821-2.448,4.299-7.323,8.167-4.27
		c3.581,2.826-0.58,5.801-2.288,8.391c-7.789,11.807-16.474,22.84-27.734,31.598c-1.328,1.033-2.823,1.852-4.241,2.769
		C632.959,718.576,632.72,718.207,632.48,717.839z"/>
	<path fill="#821911" d="M792.084,676.99c-8.641,16.947-22.652,28.985-37.48,40.274c-0.471-0.365-0.943-0.729-1.414-1.094
		c1.631-2.169,3.189-4.396,4.904-6.496c8.6-10.528,17.151-21.098,25.955-31.453c1.441-1.695,4.058-2.392,6.132-3.55
		C790.815,675.445,791.449,676.218,792.084,676.99z"/>
	<path fill="#821911" d="M706.93,702.066c12.039-12.364,18.502-28.803,33.562-37.334c0.532,0.325,1.064,0.65,1.596,0.975
		c-0.364,1.648-0.176,3.833-1.177,4.861c-10.456,10.741-21.1,21.298-31.719,31.88C709.063,702.578,708.59,702.361,706.93,702.066z"
		/>
	<path fill="#821911" d="M709.636,581.424c12.703-8.213,26.071-14.726,41.986-15.726c0.758,3.366,0.895,5.417-3.128,6.468
		c-12.773,3.336-25.428,7.12-38.129,10.73C710.122,582.405,709.879,581.915,709.636,581.424z"/>
	<path fill="#821911" d="M751.831,595.173c3.083-0.912,6.14-2.484,9.255-2.607c7.769-0.307,15.574-0.145,23.337,0.313
		c1.333,0.078,2.525,2.537,3.782,3.897c-1.601,0.761-3.276,2.295-4.79,2.149c-6.572-0.632-13.077-1.935-19.645-2.626
		c-3.719-0.391-7.514-0.071-11.274-0.071C752.274,595.877,752.052,595.525,751.831,595.173z"/>
	<path fill="#821911" d="M686.466,584.383c0.976,3.492-1.111,4.773-3.959,5.647c-6.44,1.975-12.875,3.974-19.272,6.083
		c-1.846,0.608-3.558,1.622-5.257,2.415C658.484,591.307,675.369,582.818,686.466,584.383z"/>
	<path fill="#821911" d="M708.406,561.815c7.206-6.907,15.083-11.715,25.136-11.947c1.111-0.026,2.963,1.169,3.194,2.111
		c0.259,1.055-0.706,3.372-1.535,3.584C726.474,557.79,717.667,559.705,708.406,561.815z"/>
	<path fill="#821911" d="M798.101,521.01c-7.238,7.345,1.32,15.828-1.427,23.689C787.387,540.29,789.05,523.119,798.101,521.01z"/>
	<path fill="#821911" d="M778.938,566.643c5.372-5.124,11.024-5.091,16.788-4.661C796.824,567.678,796.084,567.138,778.938,566.643z
		"/>
	<path fill="#821911" d="M1044.485,800.751c-13.132-1.423-17.553-11.798-21.747-21.434c-6.783-15.581-3.757-31.814,9.901-41.114
		c-2.887,11.574-3.854,22.358-2.371,33.502C1031.788,783.13,1040.425,790.631,1044.485,800.751z"/>
	<path fill="#821911" d="M975.976,673.71c14.595-5.806,29.191-11.612,43.998-17.502
		C1017.174,669.06,1000.125,680.186,975.976,673.71z"/>
	<path fill="#821911" d="M949.362,573.594c-10.506,7.2-21.67,13.136-34.51,15.338c-9.377,1.608-25.936-3.72-30.949-9.908
		c21.834-2.253,43.297-4.468,64.761-6.683C948.897,572.759,949.129,573.177,949.362,573.594z"/>
	<path fill="#821911" d="M909.982,519.442c-0.675,5.566-3.605,9.63-7.661,10.804c-12.196,3.529-24.899,5.733-36.286-2.183
		c-6.024-4.188-11.423-9.622-11.558-19.213C871.53,521.9,890.667,520.404,909.982,519.442z"/>
	<path fill="#94BDAB" d="M160.767,395.177c-15.165-15.357-21.116-35.58-30.7-53.92c0.905-0.988,1.768-1.987,2.694-2.925
		c0.915-0.927,1.894-1.791,3.597-3.388c9.38,17.389,18.494,34.365,27.7,51.29C166.266,390.295,164.444,392.747,160.767,395.177z"/>
</g>
</svg>
